<svg xmlns="http://www.w3.org/2000/svg" width="1365" height="768" viewBox="0 0 1365 768">
<g>
<path d="M 427.04 423.70 C422.65,430.19 418.03,436.76 416.78,438.30 L 414.50 441.11 L 409.50 438.45 C400.53,433.69 392.63,426.98 384.59,417.28 C382.76,415.08 382.81,414.97 390.86,403.03 C413.36,369.64 423.07,334.40 420.08,297.06 C418.08,272.13 413.22,254.21 402.57,232.50 C381.83,190.26 346.52,162.89 299.94,152.98 C286.12,150.04 262.21,149.77 247.50,152.40 C199.94,160.90 161.87,190.63 139.97,236.35 C136.77,243.03 133.41,250.75 132.50,253.50 C119.63,292.36 120.01,331.19 133.62,367.84 C139.29,383.12 150.22,401.29 159.59,411.04 L 163.00 414.58 L 158.75 418.66 C153.66,423.55 132.18,440.00 130.89,440.00 C129.53,440.00 118.59,424.78 112.26,414.08 C93.52,382.41 84.00,347.01 84.00,309.00 C84.00,239.64 115.15,177.82 167.81,142.67 C191.25,127.03 216.99,117.23 251.50,110.81 C261.08,109.03 295.45,109.07 304.00,110.87 C364.46,123.59 412.55,160.72 439.54,215.50 C449.60,235.91 454.57,251.14 459.17,275.64 C461.02,285.45 461.41,291.13 461.45,308.50 C461.50,329.98 460.64,338.57 456.81,355.00 C450.72,381.08 441.53,402.29 427.04,423.70 ZM 218.18 383.49 C217.73,385.99 216.92,387.50 215.98,387.53 C215.17,387.56 208.83,387.44 201.89,387.26 L 189.28 386.94 L 188.64 380.82 C188.29,377.46 188.00,370.05 188.00,364.35 L 188.00 354.00 L 182.07 354.00 C178.16,354.00 175.64,353.49 174.66,352.52 C172.55,350.41 171.71,339.07 172.25,319.88 C172.90,296.44 175.31,290.09 186.46,282.49 C192.13,278.62 192.52,278.06 197.16,267.24 C199.80,261.07 204.73,247.91 208.11,238.00 L 214.26 219.98 L 273.22 220.24 L 332.19 220.50 L 335.40 231.00 C339.17,243.34 344.25,256.96 349.76,269.50 L 353.71 278.50 L 368.50 286.68 L 370.91 294.59 C373.14,301.90 373.32,304.04 373.24,323.00 C373.19,334.27 372.78,345.75 372.32,348.50 L 371.48 353.50 L 364.35 353.79 L 357.21 354.08 L 356.48 370.54 L 355.76 387.00 L 327.30 387.00 L 326.66 377.25 C326.30,371.89 326.01,364.90 326.01,361.73 C326.00,356.39 325.79,355.86 323.25,354.73 C320.09,353.33 250.78,353.10 230.75,354.42 L 219.00 355.20 L 218.94 367.35 C218.91,374.03 218.57,381.30 218.18,383.49 ZM 1061.36 440.36 C1056.68,441.01 1050.07,440.97 1042.25,440.27 L 1038.00 439.89 L 1038.00 414.44 C1038.00,400.45 1037.66,389.04 1037.25,389.08 C1036.84,389.13 1033.57,395.07 1030.00,402.28 C1026.43,409.49 1022.83,416.18 1022.00,417.14 C1020.82,418.52 1018.63,418.95 1011.81,419.15 L 1003.11 419.41 L 996.62 406.77 C995.73,405.03 994.92,403.44 994.18,401.98 C990.51,394.76 988.59,390.98 987.54,391.20 C986.17,391.50 986.30,398.67 986.00,414.04 L 985.50 439.50 L 972.41 439.78 L 959.31 440.06 L 958.66 427.87 C957.82,412.40 957.83,388.61 958.66,355.25 L 959.32 329.00 L 986.05 329.00 L 987.07 331.75 C988.65,336.03 1011.44,381.00 1012.00,380.96 C1012.77,380.89 1037.07,331.67 1037.03,330.25 C1037.01,329.31 1040.55,329.00 1051.50,329.00 L 1066.00 329.00 L 1066.00 439.73 ZM 526.58 422.05 L 527.29 441.00 L 520.40 440.80 C516.60,440.70 510.46,440.45 506.75,440.26 L 500.00 439.91 L 500.00 329.00 L 526.98 329.00 L 539.51 354.70 C550.42,377.07 552.22,380.21 553.48,378.95 C555.00,377.41 576.28,335.08 577.45,331.25 C578.11,329.08 578.57,329.00 589.82,329.01 C596.24,329.02 602.52,329.30 603.76,329.63 L 606.02 330.24 L 605.76 384.87 L 605.50 439.50 L 579.00 440.06 L 579.00 414.53 C579.00,400.49 578.66,389.00 578.25,389.00 C577.84,389.00 573.90,395.97 569.50,404.48 L 561.50 419.96 L 552.20 419.98 C542.94,420.00 542.89,419.99 541.93,417.25 C539.74,411.02 529.35,389.62 528.35,389.28 C526.53,388.68 525.82,401.85 526.58,422.05 ZM 182.66 478.33 C179.26,481.17 175.75,484.07 174.86,484.77 C173.45,485.88 171.76,484.50 162.12,474.40 C156.00,468.00 151.00,462.26 151.00,461.65 C151.00,459.60 168.50,443.28 175.70,438.63 C198.42,423.92 221.19,416.38 257.50,411.49 C271.41,409.63 279.51,409.62 294.53,411.48 C327.02,415.51 357.48,429.19 386.92,452.99 C391.95,457.06 395.94,460.91 395.79,461.54 C395.63,462.18 390.67,467.80 384.76,474.03 L 374.01 485.37 L 369.76 482.18 C350.19,467.51 333.15,457.98 316.64,452.50 C280.27,440.42 244.38,442.20 213.81,457.60 C204.98,462.04 191.02,471.34 182.66,478.33 ZM 678.19 438.35 C653.80,446.01 629.14,431.61 620.35,404.58 C618.11,397.69 617.71,394.66 617.65,384.00 C617.59,372.72 617.87,370.68 620.47,363.11 C630.63,333.56 659.63,320.19 685.37,333.18 C695.66,338.38 704.28,349.08 709.13,362.66 C712.10,370.99 712.88,391.00 710.59,400.00 C705.75,419.00 693.44,433.56 678.19,438.35 ZM 885.00 413.00 L 885.00 440.00 L 872.17 440.00 C865.11,440.00 859.03,439.70 858.67,439.33 C857.85,438.51 857.77,336.40 858.59,332.32 L 859.17 329.40 L 872.19 329.66 L 885.21 329.92 L 899.43 355.21 C915.01,382.92 916.24,385.00 916.99,385.00 C917.27,385.00 917.40,372.74 917.28,357.75 L 917.05 330.50 L 919.78 329.87 C921.27,329.52 927.34,329.18 933.26,329.12 L 944.02 329.00 L 943.76 384.25 L 943.50 439.50 L 930.97 439.78 L 918.45 440.06 L 914.85 433.78 C912.86,430.33 907.28,420.52 902.44,412.00 C891.56,392.84 887.22,386.00 885.97,386.00 C885.37,386.00 885.00,396.24 885.00,413.00 ZM 1202.00 429.62 L 1202.00 440.00 L 1188.56 440.00 C1178.90,440.00 1174.89,439.65 1174.31,438.75 C1173.48,437.46 1173.85,330.90 1174.69,330.00 C1174.95,329.73 1183.34,329.26 1193.33,328.96 C1222.61,328.08 1232.24,329.81 1240.76,337.47 C1246.58,342.71 1250.43,349.49 1252.46,358.09 C1257.77,380.60 1248.43,403.46 1231.22,410.08 C1227.01,411.70 1222.55,412.41 1214.35,412.76 L 1203.20 413.24 L 1202.60 416.25 C1202.27,417.90 1202.00,423.92 1202.00,429.62 ZM 1292.00 427.00 L 1292.00 440.00 L 1264.00 440.00 L 1264.00 329.21 L 1281.75 328.47 C1316.13,327.02 1330.40,331.80 1337.89,347.28 C1346.75,365.58 1344.20,389.14 1331.93,402.46 C1325.82,409.09 1318.32,411.95 1304.22,413.04 C1297.78,413.54 1292.39,413.96 1292.25,413.98 C1292.11,413.99 1292.00,419.85 1292.00,427.00 ZM 1106.12 424.20 L 1102.71 440.00 L 1087.86 440.00 C1076.63,440.00 1073.00,439.69 1073.01,438.75 C1073.01,438.06 1075.49,428.50 1078.52,417.50 C1081.54,406.50 1087.88,383.33 1092.59,366.00 C1097.30,348.67 1101.49,333.38 1101.91,332.00 L 1102.67 329.50 L 1137.42 329.50 L 1138.30 333.50 C1138.79,335.70 1142.49,349.65 1146.52,364.50 C1156.18,400.04 1166.00,437.55 1166.00,438.91 C1166.00,439.65 1161.32,440.00 1151.61,440.00 C1150.73,440.00 1149.90,440.00 1149.11,440.00 C1141.36,440.02 1138.35,440.02 1136.98,438.52 C1135.97,437.42 1135.87,435.49 1135.42,432.14 C1135.07,429.45 1134.45,426.73 1134.06,426.09 C1132.99,424.37 1124.64,423.38 1114.81,423.82 ZM 781.61 423.50 L 777.49 439.50 L 760.29 439.77 L 743.09 440.05 L 741.96 435.77 C741.34,433.42 734.34,408.69 726.42,380.81 C718.49,352.94 712.00,329.84 712.00,329.50 C712.00,328.76 743.59,329.25 744.33,330.00 C744.61,330.27 748.09,345.27 752.08,363.32 C756.11,381.54 759.67,395.56 760.08,394.82 C760.48,394.10 762.89,384.27 765.43,373.00 C767.98,361.73 771.25,347.21 772.72,340.75 L 775.38 329.00 L 791.76 329.00 C806.89,329.00 808.09,329.13 807.61,330.75 C807.32,331.71 804.86,340.60 802.14,350.50 C799.42,360.40 794.62,377.27 791.47,388.00 C788.31,398.73 783.88,414.70 781.61,423.50 ZM 240.57 513.44 C236.62,515.33 229.31,519.56 224.33,522.84 L 215.27 528.79 L 209.89 523.63 C206.92,520.79 201.57,515.40 198.00,511.66 L 191.50 504.85 L 196.47 500.31 C211.51,486.58 232.07,477.21 255.24,473.54 C277.99,469.94 303.60,473.77 323.50,483.75 C330.75,487.38 344.91,496.80 350.98,502.03 L 354.46 505.03 L 342.79 516.70 L 331.12 528.37 L 325.69 524.76 C315.85,518.22 303.65,512.15 294.16,509.05 C286.10,506.42 283.34,506.00 274.07,506.00 C261.43,506.00 251.39,508.23 240.57,513.44 ZM 225.18 279.26 C236.91,279.81 327.62,280.05 328.14,279.52 C328.40,279.26 325.57,269.93 321.85,258.77 L 315.09 238.50 L 303.79 238.17 C297.58,237.99 278.97,238.16 262.43,238.53 L 232.35 239.22 L 225.43 258.32 C221.62,268.82 218.36,277.75 218.18,278.16 C218.01,278.57 221.16,279.07 225.18,279.26 ZM 840.43 440.02 C837.71,441.06 827.48,441.10 820.00,440.10 L 815.50 439.50 L 814.98 330.27 L 819.63 329.64 C822.19,329.29 828.49,329.00 833.64,329.00 L 843.00 329.00 L 843.00 439.05 ZM 283.18 581.22 C277.72,586.88 273.97,589.99 272.61,589.98 C267.24,589.91 256.37,578.14 250.81,566.35 C245.36,554.80 247.27,541.71 255.30,535.59 C261.95,530.51 267.70,528.69 274.78,529.42 C282.26,530.18 289.62,533.57 293.30,537.94 C294.76,539.68 296.35,543.39 297.02,546.61 C299.52,558.62 295.65,568.28 283.18,581.22 ZM 659.50 407.51 C664.38,409.22 664.62,409.23 669.07,408.00 C673.76,406.69 680.52,400.81 683.27,395.64 C686.41,389.72 686.40,377.26 683.24,371.31 C679.74,364.71 674.97,361.66 667.41,361.17 C663.91,360.95 659.92,361.05 658.54,361.40 C654.83,362.33 648.94,367.93 646.86,372.49 C644.73,377.18 644.41,387.29 646.19,393.25 C647.78,398.55 654.51,405.76 659.50,407.51 ZM 587.79 512.25 L 587.50 519.50 L 583.95 519.80 C576.78,520.40 574.94,513.93 576.48,493.48 L 577.19 484.00 L 587.83 484.00 L 591.38 490.35 C596.67,499.82 597.38,500.13 600.72,494.46 C605.93,485.58 607.71,484.00 612.45,484.00 L 616.73 484.00 L 617.36 488.64 C618.14,494.28 618.03,506.54 617.15,514.00 L 616.50 519.50 L 607.50 519.50 L 607.21 512.25 C607.04,508.26 606.59,505.00 606.21,505.01 C605.82,505.01 604.46,506.84 603.19,509.06 C601.06,512.78 600.57,513.09 597.19,512.81 C594.08,512.55 593.18,511.91 591.50,508.75 C590.40,506.69 589.18,505.00 588.79,505.00 C588.41,505.00 587.96,508.26 587.79,512.25 ZM 723.01 503.50 L 723.00 520.00 L 718.56 520.00 C716.12,520.00 713.92,519.66 713.67,519.25 C712.47,517.22 711.87,504.70 712.50,494.94 L 713.22 484.00 L 723.91 484.00 L 728.21 491.99 C730.57,496.38 732.81,499.98 733.18,499.99 C733.56,499.99 735.81,496.38 738.18,491.97 L 742.50 483.93 L 753.50 484.50 L 753.50 519.50 L 743.00 520.10 L 742.98 512.30 L 742.96 504.50 L 739.40 508.75 C734.64,514.43 732.30,514.33 727.08,508.25 ZM 647.54 518.12 C645.32,519.13 642.15,519.96 640.50,519.96 C634.02,519.96 625.41,513.90 623.06,507.68 C620.66,501.31 622.76,492.24 627.68,487.79 C632.98,482.99 641.73,481.79 648.60,484.91 C653.46,487.11 656.48,491.02 658.15,497.27 C660.35,505.50 655.85,514.35 647.54,518.12 ZM 1056.75 518.46 C1051.70,520.57 1047.29,520.39 1042.20,517.87 C1032.68,513.16 1028.88,501.57 1033.82,492.33 C1035.65,488.91 1040.78,485.14 1045.22,483.94 C1057.32,480.68 1068.00,488.92 1068.00,501.51 C1068.00,509.25 1063.86,515.49 1056.75,518.46 ZM 881.77 519.45 C877.35,521.30 876.61,521.31 871.76,519.58 C864.06,516.83 860.72,512.95 858.22,503.86 C857.41,500.90 857.59,499.40 859.17,495.86 C863.93,485.21 873.30,480.51 882.68,484.07 C891.98,487.59 896.54,499.90 892.11,509.50 C889.88,514.34 886.71,517.39 881.77,519.45 ZM 1201.48 519.07 C1200.71,519.26 1200.02,519.43 1199.38,519.58 C1195.04,520.63 1193.61,520.97 1192.31,520.71 C1191.47,520.55 1190.69,520.14 1189.24,519.51 C1187.44,518.72 1185.45,516.84 1184.79,515.30 C1183.24,511.68 1183.21,486.39 1184.75,484.85 C1185.37,484.23 1189.65,483.74 1194.67,483.72 C1201.66,483.70 1204.34,484.12 1207.51,485.74 C1217.20,490.70 1219.68,505.74 1212.18,514.12 C1210.04,516.52 1207.76,517.57 1201.48,519.07 ZM 1242.26 582.05 C1236.71,585.57 1234.88,585.68 1229.12,582.83 C1222.48,579.55 1219.00,573.42 1219.00,565.05 C1219.01,557.51 1220.78,553.80 1226.42,549.49 C1237.27,541.22 1251.35,549.93 1251.33,564.92 C1251.31,572.51 1248.29,578.23 1242.26,582.05 ZM 926.28 583.62 C924.51,584.38 922.26,584.99 921.28,584.98 C918.65,584.95 911.76,581.57 909.79,579.35 C904.81,573.75 903.52,562.81 907.03,555.95 C909.58,550.94 916.24,546.00 920.44,546.00 C925.90,546.00 932.23,549.96 934.75,554.96 C937.23,559.88 937.79,568.77 935.94,573.68 C934.49,577.52 930.17,581.96 926.28,583.62 ZM 574.50 567.50 L 573.50 583.50 L 569.31 583.80 L 565.12 584.11 L 564.81 571.80 C564.64,565.04 564.72,556.80 565.00,553.50 C565.50,547.55 565.53,547.50 568.82,547.18 C571.54,546.92 572.74,547.50 575.48,550.41 C577.32,552.36 579.58,556.22 580.49,558.98 C581.41,561.74 582.52,564.00 582.96,564.00 C583.40,564.00 585.48,560.17 587.59,555.50 C591.35,547.14 591.48,547.00 594.96,547.02 C596.94,547.02 598.28,547.02 599.18,547.64 C601.04,548.95 600.98,553.02 600.78,565.71 L 600.77 566.07 L 600.50 583.50 L 592.00 584.11 L 591.96 575.31 C591.92,566.58 591.91,566.53 590.42,569.97 C588.25,574.96 586.08,577.00 582.94,577.00 C580.73,577.00 579.64,576.08 577.35,572.25 ZM 800.13 517.87 C797.79,520.21 792.18,520.78 791.55,518.75 C790.57,515.57 790.04,500.38 790.63,492.61 L 791.30 484.00 L 801.92 484.00 L 807.21 492.66 L 812.50 501.33 L 812.79 492.66 L 813.08 484.00 L 824.05 484.00 L 823.50 519.50 L 813.64 519.50 L 808.07 511.29 C805.01,506.78 802.21,503.07 801.87,503.04 C801.52,503.02 801.46,505.87 801.74,509.37 C802.19,514.94 801.98,516.02 800.13,517.87 ZM 627.50 582.73 C621.62,586.02 615.81,585.20 610.64,580.38 C601.55,571.90 602.21,555.70 611.90,549.26 C616.36,546.29 624.15,546.18 628.80,549.02 C632.86,551.49 636.98,559.82 636.99,565.57 C637.00,571.70 632.43,579.98 627.50,582.73 ZM 686.55 584.00 C685.79,584.00 684.56,584.21 683.83,584.46 C682.01,585.09 675.32,582.60 672.79,580.35 C667.83,575.93 665.43,564.26 668.07,557.32 C670.25,551.55 677.98,546.00 683.81,546.00 C688.03,546.00 693.17,549.87 695.75,554.97 C698.37,560.15 698.79,569.18 696.65,574.30 C695.17,577.83 688.75,584.00 686.55,584.00 ZM 1084.50 503.50 L 1083.50 519.50 L 1078.27 519.80 L 1073.03 520.10 L 1073.05 502.05 L 1073.07 484.00 L 1083.92 484.00 L 1088.71 491.96 C1091.34,496.35 1093.84,499.95 1094.25,499.96 C1094.66,499.98 1095.00,496.40 1095.00,492.00 L 1095.00 484.00 L 1105.05 484.00 L 1104.50 519.50 L 1100.01 519.50 C1095.53,519.50 1095.52,519.49 1090.01,511.50 ZM 1162.00 557.00 L 1162.00 584.00 L 1152.00 584.00 L 1152.00 570.50 C1152.00,557.59 1151.91,557.00 1149.96,557.00 C1146.41,557.00 1143.00,554.04 1143.00,550.94 C1143.00,549.39 1143.44,547.85 1143.98,547.51 C1144.51,547.18 1149.81,546.85 1155.74,546.77 C1163.89,546.66 1167.33,547.02 1169.77,548.23 C1172.47,549.58 1173.00,549.62 1173.00,548.42 C1173.00,547.38 1174.34,547.00 1178.00,547.00 L 1183.00 547.00 L 1183.00 584.00 L 1179.04 584.00 C1173.29,584.00 1172.59,582.10 1172.65,566.75 C1172.68,559.74 1172.37,554.00 1171.97,554.00 C1171.57,554.00 1170.68,554.67 1170.00,555.50 C1169.32,556.33 1167.24,557.00 1165.38,557.00 ZM 919.45 516.75 C918.93,519.91 918.77,520.00 913.95,520.00 L 909.00 520.00 L 909.00 490.39 L 912.30 487.20 C914.11,485.44 916.31,484.00 917.19,484.00 C919.30,484.00 924.59,490.10 927.27,495.61 C928.44,498.02 929.76,500.00 930.20,500.00 C930.64,500.00 931.00,496.40 931.00,492.00 L 931.00 484.00 L 941.05 484.00 L 940.50 519.50 L 936.36 519.80 L 932.21 520.10 L 926.36 511.80 L 920.50 503.50 L 920.25 508.50 C920.11,511.25 919.75,514.96 919.45,516.75 ZM 713.00 581.06 C713.00,583.86 712.80,584.00 708.67,584.00 C706.28,584.00 704.03,583.70 703.67,583.33 C703.30,582.97 703.00,574.64 703.00,564.83 L 703.00 547.00 L 712.05 547.00 C722.70,547.00 726.47,548.49 728.58,553.53 C730.54,558.22 730.36,562.29 727.96,567.88 L 725.91 572.63 L 727.96 577.40 C729.08,580.02 730.00,582.58 730.00,583.08 C730.00,583.59 728.09,584.00 725.75,584.00 C722.08,584.00 721.08,583.50 718.42,580.33 C714.98,576.23 713.00,576.50 713.00,581.06 ZM 952.00 580.58 C951.55,583.17 951.04,583.53 947.46,583.80 C945.24,583.96 943.11,583.77 942.71,583.38 C942.32,582.99 942.00,574.59 942.00,564.71 L 942.00 546.76 L 951.25 547.22 C956.34,547.47 961.66,548.24 963.08,548.93 C968.98,551.77 970.55,559.53 966.92,567.96 L 964.85 572.78 L 966.98 576.97 C969.55,581.99 968.53,584.00 963.45,584.00 C960.10,584.00 957.85,582.47 955.93,578.86 C954.50,576.19 952.61,577.01 952.00,580.58 ZM 785.80 514.75 L 785.50 519.50 L 772.95 519.78 C766.04,519.93 760.08,519.74 759.70,519.36 C759.31,518.98 759.00,510.87 759.00,501.33 L 759.00 484.00 L 785.11 484.00 L 784.50 492.50 L 778.33 493.00 C768.06,493.83 768.21,496.16 778.59,496.82 L 785.10 497.24 L 784.80 501.87 L 784.50 506.50 L 777.50 507.00 C771.28,507.44 770.74,507.64 772.68,508.75 C773.89,509.44 777.40,510.00 780.49,510.00 L 786.11 510.00 ZM 1247.80 514.80 L 1247.50 519.50 L 1234.75 519.78 C1227.74,519.93 1221.97,519.93 1221.93,519.78 C1221.88,519.63 1221.77,511.51 1221.66,501.75 L 1221.48 484.00 L 1247.11 484.00 L 1246.50 493.50 L 1239.75 493.80 C1231.54,494.16 1230.71,495.99 1238.75,496.02 C1246.31,496.04 1247.20,496.70 1246.81,502.10 L 1246.50 506.50 L 1240.18 506.80 C1231.47,507.21 1232.34,509.40 1241.38,509.80 L 1248.11 510.09 ZM 956.66 517.00 C954.44,519.49 953.22,520.00 949.49,520.00 C943.63,520.00 943.64,519.67 950.23,499.78 L 955.45 484.00 L 968.11 484.00 L 970.25 488.75 C972.93,494.69 979.94,518.24 979.33,519.25 C979.08,519.66 977.21,520.00 975.16,520.00 C972.43,520.00 970.58,519.21 968.16,517.00 C966.17,515.18 963.79,514.00 962.10,514.00 C960.28,514.00 958.41,515.03 956.66,517.00 ZM 1121.00 517.00 C1117.95,519.02 1115.25,519.99 1112.64,520.00 L 1108.78 520.00 L 1109.46 516.37 C1110.50,510.83 1114.85,496.25 1117.30,490.07 C1119.39,484.83 1119.72,484.51 1123.80,483.82 C1130.36,482.70 1132.38,483.96 1134.80,490.67 C1138.27,500.26 1143.07,518.08 1142.46,519.07 C1141.27,520.99 1136.35,519.94 1132.96,517.04 C1128.58,513.29 1126.59,513.29 1121.00,517.00 ZM 813.09 580.88 C811.00,583.80 808.32,584.81 804.25,584.20 C803.01,584.01 802.00,583.78 802.01,583.68 C802.03,583.01 808.42,559.32 810.07,553.75 L 812.11 546.91 L 818.31 547.20 L 824.50 547.50 L 826.37 553.00 C829.98,563.63 833.00,575.52 833.00,579.12 C833.00,585.59 829.74,585.87 822.32,580.03 C818.67,577.16 815.53,577.45 813.09,580.88 ZM 885.00 581.08 C885.00,583.88 884.81,584.00 880.47,584.00 C877.70,584.00 875.75,583.50 875.44,582.71 C875.17,582.01 875.07,573.79 875.22,564.46 L 875.50 547.50 L 885.17 547.50 C894.11,547.50 895.05,547.69 897.52,550.00 C904.99,556.99 904.78,565.80 896.96,572.38 C894.79,574.21 892.69,575.00 890.03,575.00 C885.89,575.00 885.00,576.08 885.00,581.08 ZM 1023.28 579.71 C1021.76,582.94 1020.96,583.54 1017.89,583.80 C1014.41,584.09 1014.26,583.96 1013.65,580.30 C1012.83,575.34 1012.84,552.19 1013.67,549.11 C1014.30,546.76 1014.43,546.73 1023.40,547.33 C1035.63,548.14 1036.58,548.50 1038.43,553.12 C1042.28,562.75 1039.35,572.01 1031.80,574.06 C1029.43,574.70 1026.95,575.38 1026.28,575.57 C1025.61,575.76 1024.25,577.62 1023.28,579.71 ZM 1124.83 580.63 C1124.52,583.29 1124.15,583.52 1119.75,583.80 C1115.34,584.09 1115.00,583.94 1115.00,581.75 C1115.00,578.37 1118.53,564.88 1121.87,555.50 L 1124.72 547.50 L 1130.17 547.21 L 1135.62 546.91 L 1138.76 556.71 C1141.53,565.34 1143.22,571.57 1145.41,581.25 C1146.02,583.93 1145.93,584.00 1141.59,584.00 C1138.00,584.00 1136.75,583.50 1135.11,581.41 C1133.74,579.67 1131.77,578.64 1129.11,578.29 C1125.35,577.78 1125.14,577.90 1124.83,580.63 ZM 989.18 581.50 C988.25,583.54 987.33,584.00 984.19,584.00 C982.07,584.00 980.11,583.78 979.84,583.50 C979.27,582.94 986.38,553.94 988.11,549.75 C989.16,547.19 989.65,547.00 995.12,547.00 C998.35,547.00 1001.00,547.18 1001.00,547.40 C1001.00,547.62 1003.02,555.16 1005.49,564.15 C1007.96,573.14 1009.99,581.29 1009.99,582.25 C1010.00,583.62 1009.15,584.00 1006.02,584.00 C1002.88,584.00 1001.70,583.47 1000.41,581.50 C999.09,579.49 997.95,579.00 994.55,579.00 C991.01,579.00 990.14,579.41 989.18,581.50 ZM 683.52 516.60 C682.13,519.93 681.97,520.00 676.13,520.00 L 670.16 520.00 L 667.38 511.75 C665.85,507.21 663.16,499.11 661.41,493.75 L 658.21 484.00 L 670.76 484.00 L 671.94 488.75 C674.12,497.50 676.18,504.15 676.60,503.74 C676.82,503.51 677.50,500.69 678.09,497.46 C678.69,494.24 679.86,489.89 680.70,487.80 C682.19,484.06 682.30,484.00 687.61,484.00 C691.26,484.00 693.00,484.40 693.00,485.25 C693.00,486.91 685.33,512.27 683.52,516.60 ZM 769.49 582.60 C765.20,585.41 759.17,585.41 753.25,582.59 C747.52,579.87 747.48,579.79 749.13,575.06 C749.57,573.79 749.83,572.98 750.38,572.59 C751.32,571.93 753.10,572.46 758.11,573.96 L 758.60 574.11 C762.85,575.38 766.59,574.77 765.49,572.98 C765.14,572.42 762.13,570.58 758.81,568.90 C751.13,565.02 748.00,561.92 748.00,558.18 C748.00,552.41 756.20,546.07 763.73,546.02 C767.43,546.00 775.00,548.76 775.00,550.14 C775.00,550.65 774.33,552.67 773.51,554.64 C772.34,557.42 771.62,558.06 770.26,557.51 C769.29,557.12 766.75,556.55 764.62,556.25 C759.15,555.48 760.14,557.79 766.64,561.00 C773.35,564.31 774.69,565.53 776.00,569.51 C776.98,572.47 776.81,573.35 774.56,576.91 C773.16,579.13 770.87,581.69 769.49,582.60 ZM 856.10 582.45 C852.73,584.19 845.61,585.18 842.54,584.32 C837.92,583.03 836.00,580.87 836.00,576.94 C836.00,574.84 836.42,572.86 836.94,572.54 C837.46,572.22 840.57,572.71 843.85,573.62 C854.69,576.63 856.41,573.19 845.96,569.42 C842.41,568.14 838.49,565.92 837.25,564.49 C834.73,561.58 834.34,556.87 836.28,553.02 C838.16,549.32 844.57,546.08 848.91,546.64 C861.37,548.26 861.56,548.39 859.90,553.92 C858.75,557.79 858.44,558.07 856.07,557.39 C852.27,556.31 848.09,556.36 847.80,557.50 C847.66,558.05 849.98,559.47 852.96,560.66 C857.54,562.49 858.73,563.52 860.72,567.44 L 863.07 572.06 L 861.12 576.46 C859.90,579.23 858.04,581.45 856.10,582.45 ZM 1211.00 572.50 L 1208.20 583.50 L 1202.76 583.80 C1199.20,583.99 1196.96,583.64 1196.28,582.80 C1194.19,580.20 1187.10,554.86 1187.04,549.75 C1187.00,547.09 1187.17,547.00 1192.36,547.00 L 1197.73 547.00 L 1198.36 551.75 C1199.35,559.15 1201.24,567.00 1202.04,567.00 C1202.43,567.00 1203.81,562.48 1205.11,556.95 L 1207.47 546.91 L 1211.98 547.20 C1216.24,547.48 1216.52,547.68 1216.81,550.65 C1216.97,552.38 1216.37,555.53 1215.46,557.65 C1214.55,559.77 1212.55,566.45 1211.00,572.50 ZM 338.42 324.10 C343.95,326.62 346.52,326.47 350.55,323.39 C363.82,313.28 358.46,295.00 342.24,295.00 C339.11,295.00 337.74,295.69 334.82,298.75 C326.18,307.78 327.82,319.29 338.42,324.10 ZM 198.35 324.91 C200.08,325.41 202.52,325.86 203.77,325.91 C206.87,326.03 214.60,318.73 216.06,314.30 C219.41,304.18 212.52,295.00 201.58,295.00 C197.76,295.00 196.53,295.53 193.57,298.49 C189.62,302.45 187.53,308.67 188.47,313.68 C189.28,318.01 194.32,323.74 198.35,324.91 ZM 1004.12 517.92 C997.98,521.02 996.74,521.08 991.31,518.56 C983.75,515.05 980.49,509.76 980.53,501.07 C980.57,493.21 982.48,489.10 987.52,485.99 C990.55,484.12 992.19,483.84 998.50,484.16 C1005.37,484.51 1006.19,484.79 1009.46,487.96 C1011.41,489.85 1013.00,491.71 1013.00,492.10 C1013.00,493.05 1006.21,497.00 1004.57,497.00 C1003.84,497.00 1002.68,496.33 1002.00,495.50 C1001.29,494.65 999.11,494.00 996.95,494.00 C994.03,494.00 992.66,494.61 991.07,496.63 C988.31,500.15 988.46,503.21 991.59,506.92 C993.64,509.37 994.96,510.00 997.98,510.00 C1000.44,510.00 1001.99,509.47 1002.36,508.50 C1003.13,506.51 1006.72,506.67 1010.85,508.87 L 1014.20 510.65 L 1010.97 513.38 C1009.19,514.87 1006.11,516.92 1004.12,517.92 ZM 1108.00 581.73 C1100.50,585.45 1098.11,585.51 1092.80,582.11 C1086.77,578.26 1084.00,573.02 1084.00,565.49 C1084.00,557.18 1087.36,551.39 1094.21,547.89 C1100.75,544.56 1105.55,545.76 1111.85,552.31 L 1115.19 555.80 L 1111.37 558.40 C1106.68,561.58 1106.67,561.58 1103.59,558.50 C1100.57,555.48 1098.65,555.35 1096.00,558.00 C1092.13,561.87 1094.07,575.00 1098.51,575.00 C1099.28,575.00 1101.57,573.88 1103.60,572.50 C1108.01,569.50 1109.07,569.43 1112.12,571.90 C1115.60,574.71 1113.88,578.81 1108.00,581.73 ZM 846.78 506.25 L 846.50 519.50 L 841.74 519.81 C838.08,520.04 836.84,519.74 836.36,518.48 C836.01,517.59 835.95,511.51 836.22,504.98 L 836.71 493.09 L 831.60 492.80 C826.73,492.51 826.49,492.36 826.24,489.50 C825.76,484.03 826.80,483.53 839.54,483.16 C845.93,482.98 852.20,483.08 853.47,483.40 C856.00,484.04 857.26,487.28 856.35,490.78 C855.86,492.64 855.07,493.00 851.41,493.00 L 847.06 493.00 ZM 1171.81 516.31 L 1171.50 519.50 L 1159.33 519.78 C1147.72,520.05 1147.12,519.96 1146.49,517.96 C1145.39,514.49 1145.40,486.20 1146.50,485.18 C1148.37,483.46 1153.68,483.05 1155.63,484.47 C1157.27,485.68 1157.50,487.26 1157.50,497.67 L 1157.50 509.50 L 1162.67 509.17 C1169.11,508.75 1172.30,511.24 1171.81,516.31 ZM 794.00 583.00 C792.90,584.10 791.12,585.00 790.04,585.00 C786.49,585.00 785.49,581.32 785.62,568.75 L 785.73 557.00 L 778.00 557.00 L 778.00 547.00 L 805.11 547.00 L 804.80 551.75 L 804.50 556.50 L 796.00 556.33 L 796.00 568.66 C796.00,579.67 795.78,581.22 794.00,583.00 ZM 1202.67 383.33 C1203.75,384.42 1214.22,383.98 1218.00,382.69 C1224.69,380.41 1227.25,369.64 1222.71,362.90 L 1220.43 359.50 L 1211.21 359.21 L 1202.00 358.92 L 1202.00 370.80 C1202.00,377.32 1202.30,382.97 1202.67,383.33 ZM 1292.67 383.33 C1294.04,384.71 1304.56,383.97 1308.00,382.25 C1312.10,380.20 1314.88,375.17 1314.95,369.68 C1315.05,361.92 1310.70,359.00 1299.03,359.00 L 1292.00 359.00 L 1292.00 370.83 C1292.00,377.34 1292.30,382.97 1292.67,383.33 ZM 1067.39 582.42 C1066.89,583.72 1064.92,584.00 1056.06,584.00 C1050.16,584.00 1045.03,583.70 1044.67,583.33 C1043.84,582.50 1043.81,552.33 1044.63,549.25 C1045.10,547.50 1045.96,547.00 1048.49,547.00 C1053.71,547.00 1054.46,548.84 1054.85,562.65 L 1055.21 575.00 L 1068.00 575.00 L 1068.00 577.92 C1068.00,579.52 1067.73,581.55 1067.39,582.42 ZM 656.78 570.25 L 656.50 583.50 L 648.00 584.11 L 648.00 557.00 L 644.67 557.00 C641.08,557.00 637.00,553.66 637.00,550.72 C637.00,547.71 640.60,546.93 653.24,547.22 L 665.50 547.50 L 665.83 550.96 C666.21,554.96 664.19,557.00 659.84,557.00 L 657.06 557.00 ZM 708.32 507.00 L 707.50 519.50 L 702.75 519.80 C698.41,520.08 697.90,519.88 697.00,517.49 C695.89,514.57 695.65,495.82 696.64,488.64 L 697.27 484.00 L 707.86 484.00 L 708.50 489.25 C708.86,492.14 708.78,500.12 708.32,507.00 ZM 1027.86 517.75 C1027.17,519.68 1026.33,520.00 1022.00,520.00 L 1016.95 520.00 L 1017.50 484.50 L 1027.75 483.90 L 1028.22 499.70 C1028.47,508.39 1028.31,516.51 1027.86,517.75 ZM 744.18 579.50 C743.51,583.32 743.29,583.51 739.45,583.80 C737.24,583.96 735.11,583.77 734.71,583.38 C733.84,582.50 733.76,554.45 734.62,550.12 C735.21,547.21 735.54,547.00 739.49,547.00 L 743.73 547.00 L 744.36 551.64 C745.19,557.67 745.08,574.39 744.18,579.50 ZM 1080.53 577.54 C1079.84,583.99 1079.83,584.00 1076.67,583.98 C1074.93,583.98 1072.88,583.58 1072.13,583.10 C1070.37,581.98 1069.48,567.41 1070.46,555.65 L 1071.18 547.00 L 1074.34 547.02 C1080.02,547.04 1080.43,547.86 1080.84,559.99 C1081.05,566.09 1080.91,573.99 1080.53,577.54 ZM 1112.79 395.46 C1113.09,395.76 1116.70,396.00 1120.80,396.00 L 1128.28 396.00 L 1127.59 389.25 C1126.23,375.92 1122.29,361.00 1120.12,361.00 C1118.81,361.00 1111.71,394.37 1112.79,395.46 ZM 633.97 507.95 C634.82,509.54 636.06,510.00 639.46,510.00 C645.42,510.00 648.47,506.43 647.57,500.50 C646.83,495.68 643.95,493.00 639.50,493.00 C637.07,493.00 635.79,493.68 634.50,495.64 C632.56,498.59 632.30,504.82 633.97,507.95 ZM 1044.45 507.55 C1051.10,514.20 1060.38,506.63 1056.62,497.62 C1054.13,491.67 1048.05,491.32 1044.29,496.90 C1041.34,501.27 1041.39,504.48 1044.45,507.55 ZM 870.65 507.55 C876.14,512.64 883.45,508.80 883.45,500.84 C883.45,493.16 875.51,490.23 870.59,496.08 C867.18,500.13 867.20,504.35 870.65,507.55 ZM 919.11 573.60 C919.24,573.68 919.36,573.74 919.48,573.81 C920.69,574.48 921.34,574.85 921.96,574.79 C922.74,574.72 923.46,573.97 925.20,572.31 C927.29,570.31 928.00,568.68 928.00,565.89 C928.00,560.76 927.22,559.17 923.89,557.45 C921.55,556.23 920.66,556.19 919.01,557.22 C916.92,558.53 913.97,563.81 914.04,566.15 C914.10,568.50 916.64,572.23 919.11,573.60 ZM 1232.75 573.93 C1235.44,575.52 1237.22,574.80 1239.71,571.10 C1244.06,564.64 1241.83,557.00 1235.60,557.00 C1231.77,557.00 1229.29,559.31 1228.41,563.68 C1227.73,567.09 1229.92,572.26 1232.75,573.93 ZM 616.45 572.55 C619.84,575.94 622.43,575.66 624.92,571.63 C629.14,564.80 626.54,557.00 620.06,557.00 C616.20,557.00 614.00,560.19 614.00,565.77 C614.00,569.02 614.61,570.70 616.45,572.55 ZM 678.92 572.08 C682.70,575.86 684.37,575.76 686.92,571.63 C689.97,566.70 689.72,560.71 686.37,558.07 C682.83,555.30 681.64,555.45 678.59,559.08 C674.97,563.38 675.09,568.25 678.92,572.08 ZM 1196.66 508.17 C1197.57,509.18 1198.87,510.00 1199.54,510.00 C1202.02,510.00 1205.08,506.41 1205.65,502.82 C1206.14,499.76 1205.81,498.72 1203.66,496.57 C1202.03,494.94 1199.98,494.00 1198.05,494.00 L 1195.00 494.00 L 1195.00 500.17 C1195.00,504.51 1195.49,506.89 1196.66,508.17 ZM 886.75 564.92 C890.39,567.04 893.00,565.31 893.00,560.78 C893.00,557.43 888.79,555.10 886.38,557.10 C884.41,558.73 884.65,563.70 886.75,564.92 ZM 1025.13 564.65 C1027.55,567.57 1031.00,565.30 1031.00,560.78 C1031.00,558.63 1030.35,557.70 1028.33,556.93 C1024.26,555.39 1022.64,556.45 1023.38,560.17 C1023.73,561.90 1024.51,563.91 1025.13,564.65 ZM 953.24 563.84 C955.07,565.67 958.16,564.82 959.12,562.23 C960.11,559.53 957.21,556.00 954.00,556.00 C952.40,556.00 952.00,556.67 952.00,559.30 C952.00,561.11 952.56,563.16 953.24,563.84 ZM 714.20 563.80 C716.32,565.92 719.72,565.24 720.23,562.60 C720.90,559.07 719.32,557.00 715.95,557.00 C713.39,557.00 713.00,557.37 713.00,559.80 C713.00,561.34 713.54,563.14 714.20,563.80 ZM 961.07 505.58 C962.28,507.04 962.51,507.02 963.70,505.40 C965.41,503.06 965.35,498.87 963.58,496.44 C961.77,493.97 960.97,494.82 960.29,499.91 C959.93,502.55 960.21,504.54 961.07,505.58 ZM 1124.39 503.43 C1125.22,506.71 1127.77,506.76 1128.59,503.50 C1129.34,500.51 1128.36,496.00 1126.96,496.00 C1125.31,496.00 1123.70,500.66 1124.39,503.43 ZM 993.67 569.33 C996.35,572.02 998.41,563.70 995.98,560.00 C995.11,558.67 994.89,558.67 994.02,560.00 C992.90,561.70 992.65,568.32 993.67,569.33 ZM 1128.98 568.48 C1130.89,570.78 1132.00,569.32 1132.00,564.50 C1132.00,560.59 1130.69,557.97 1129.39,559.28 C1128.14,560.53 1127.84,567.11 1128.98,568.48 ZM 816.49 566.98 C817.58,570.39 820.00,569.43 820.00,565.58 C820.00,561.70 819.17,559.00 817.97,559.00 C816.79,559.00 815.74,564.62 816.49,566.98 Z" fill="rgb(0,0,0)"/>
<path d="M 448.20 648.61 C436.64,650.03 422.83,650.26 417.54,649.13 L 414.57 648.49 L 420.57 644.00 C423.87,641.52 430.03,637.25 434.27,634.50 C438.51,631.75 441.98,629.19 441.99,628.81 C442.02,626.78 388.06,589.50 360.50,572.50 C354.45,568.77 348.90,565.17 348.17,564.50 C346.61,563.06 351.71,562.33 373.00,560.97 C380.42,560.50 390.55,559.60 395.50,558.97 C400.67,558.32 408.73,558.11 414.45,558.48 C424.27,559.11 424.53,559.19 433.95,564.71 C450.61,574.47 464.20,584.23 473.49,593.14 C478.44,597.89 486.55,604.82 491.50,608.54 C502.13,616.53 514.48,626.69 525.32,636.36 C531.36,641.75 532.81,643.53 531.66,644.17 C529.55,645.35 499.76,646.99 478.00,647.12 C467.83,647.18 454.41,647.85 448.20,648.61 ZM 35.04 651.56 C21.62,653.25 19.00,653.33 19.00,652.07 C19.00,651.56 27.44,643.35 37.75,633.82 C48.06,624.29 63.47,609.50 72.00,600.95 C105.47,567.37 121.75,557.89 152.50,554.09 C165.19,552.52 189.11,551.70 199.41,552.47 L 208.84 553.17 L 207.08 557.33 C205.70,560.57 204.02,562.23 199.41,564.93 C196.16,566.83 189.04,571.70 183.60,575.75 C178.15,579.80 171.44,584.26 168.68,585.66 C165.92,587.06 159.03,591.74 153.35,596.07 C141.17,605.36 124.90,616.37 116.50,621.03 C113.20,622.86 109.23,625.23 107.67,626.30 L 104.84 628.25 L 114.01 634.33 C122.07,639.66 122.97,640.55 121.48,641.64 C117.08,644.86 94.71,646.35 86.01,644.00 C82.85,643.15 81.44,643.24 79.15,644.42 C76.65,645.72 76.02,645.73 74.38,644.49 C71.74,642.49 69.99,642.66 67.32,645.17 C64.41,647.91 63.07,646.74 65.06,643.19 C66.11,641.31 67.90,640.16 71.03,639.37 C74.37,638.52 75.06,638.05 73.76,637.51 C72.70,637.07 70.43,637.62 67.98,638.90 C65.76,640.05 62.63,641.00 61.02,641.00 C58.87,641.00 57.41,641.90 55.49,644.42 C52.20,648.74 49.25,649.77 35.04,651.56 ZM 333.45 646.84 C328.42,649.13 317.83,648.20 289.00,642.93 C285.98,642.38 273.15,641.52 260.50,641.02 C235.80,640.05 204.91,637.68 203.21,636.63 C201.81,635.77 202.53,611.66 203.97,611.18 C204.54,610.99 204.81,610.50 204.56,610.09 C203.85,608.95 252.62,609.63 260.50,610.87 C287.62,615.14 309.05,624.23 331.25,640.85 C333.86,642.81 336.00,644.70 336.00,645.04 C336.00,645.39 334.85,646.20 333.45,646.84 ZM 346.56 632.33 C346.17,635.45 345.55,638.00 345.17,638.00 C344.80,638.00 341.12,635.45 337.00,632.34 C316.57,616.91 305.59,611.15 278.19,601.48 C277.25,601.15 278.02,598.84 281.00,593.11 C285.05,585.34 289.65,579.78 295.89,575.15 C297.64,573.85 299.90,571.15 300.93,569.15 C301.95,567.14 303.73,564.65 304.88,563.61 C306.95,561.74 307.03,561.75 311.21,564.61 C318.17,569.37 332.35,584.07 336.31,590.63 C343.76,603.00 348.05,620.44 346.56,632.33 ZM 260.94 593.85 C261.67,595.62 262.10,597.18 261.88,597.32 C261.67,597.47 258.12,597.22 254.00,596.78 C249.88,596.34 238.06,596.26 227.75,596.60 C215.99,597.00 209.00,596.87 209.00,596.27 C209.00,594.49 217.01,582.91 221.74,577.85 C224.32,575.08 229.34,570.51 232.88,567.70 C238.85,562.95 239.41,562.71 240.41,564.44 C241.01,565.48 245.57,571.79 250.55,578.48 C255.53,585.16 260.20,592.08 260.94,593.85 ZM 881.55 640.28 C880.16,643.43 878.54,646.00 877.95,646.00 C877.36,646.00 875.01,642.06 872.74,637.25 L 868.60 628.50 L 867.90 635.86 C867.18,643.24 866.08,645.79 864.12,644.58 C860.29,642.21 860.08,620.52 863.85,616.75 C867.22,613.38 874.05,620.57 876.24,629.80 C876.92,632.66 877.73,635.00 878.05,635.00 C878.37,635.00 879.39,632.59 880.32,629.64 C882.48,622.82 887.34,616.00 890.06,616.00 C893.14,616.00 895.32,622.08 895.42,631.00 C895.51,639.40 893.68,645.27 891.11,644.79 C889.86,644.55 889.43,642.99 889.20,637.74 C889.04,634.03 888.55,631.00 888.11,631.00 C886.60,631.00 884.08,634.57 881.55,640.28 ZM 745.98 644.17 C741.64,645.84 735.81,646.37 733.25,645.34 C732.34,644.97 732.00,641.22 732.00,631.45 C732.00,618.82 732.12,618.01 734.13,616.93 C736.66,615.58 742.91,616.38 747.22,618.61 C750.14,620.12 750.21,620.34 749.56,625.27 C749.04,629.20 749.29,631.12 750.65,633.64 C753.26,638.50 751.72,641.97 745.98,644.17 ZM 1045.35 643.16 C1042.44,646.19 1038.42,646.79 1034.31,644.80 C1030.30,642.87 1028.61,628.73 1031.63,622.37 C1033.40,618.64 1034.84,617.59 1039.59,616.57 C1043.88,615.65 1046.86,618.33 1048.48,624.56 C1050.28,631.52 1048.96,639.39 1045.35,643.16 ZM 1090.00 641.84 C1088.34,644.13 1086.88,646.00 1086.74,645.99 C1086.61,645.99 1085.07,644.38 1083.31,642.41 C1080.54,639.30 1079.63,638.87 1076.31,639.16 C1072.77,639.48 1072.52,639.32 1072.75,637.00 C1073.10,633.51 1080.85,617.99 1082.58,617.33 C1087.69,615.37 1091.65,621.11 1090.43,628.74 C1089.97,631.61 1090.24,633.44 1091.40,635.21 C1092.95,637.57 1092.88,637.86 1090.00,641.84 ZM 967.03 644.48 C961.58,647.30 957.12,646.06 954.50,641.00 C952.35,636.84 952.64,633.29 955.54,628.34 C957.87,624.36 958.42,624.00 962.11,624.00 C967.17,624.00 969.57,625.28 971.49,628.98 C974.45,634.71 972.45,641.68 967.03,644.48 ZM 916.36 642.25 L 915.74 646.00 L 910.62 645.94 C905.02,645.87 899.00,643.44 899.00,641.25 C899.00,638.55 901.12,635.98 904.97,634.02 C909.79,631.55 910.66,630.24 908.73,628.31 C907.57,627.14 906.77,627.05 905.18,627.90 C902.27,629.46 900.00,629.26 900.00,627.45 C900.00,625.24 906.21,622.89 910.04,623.66 C915.81,624.81 918.12,631.61 916.36,642.25 ZM 1068.46 644.65 C1066.43,646.13 1052.47,646.57 1051.61,645.18 C1051.33,644.73 1052.94,641.71 1055.19,638.47 C1060.28,631.13 1062.28,626.45 1061.44,623.82 C1060.89,622.07 1060.24,621.87 1056.87,622.40 C1053.87,622.89 1052.81,622.67 1052.36,621.50 C1051.42,619.05 1053.81,617.15 1058.76,616.41 C1063.05,615.77 1063.55,615.93 1066.18,618.88 C1067.73,620.61 1069.00,622.95 1069.00,624.07 C1069.00,626.68 1066.48,631.56 1062.85,635.98 C1061.28,637.89 1060.00,639.80 1060.00,640.23 C1060.00,640.65 1062.00,641.00 1064.44,641.00 C1069.43,641.00 1071.23,642.63 1068.46,644.65 ZM 1023.87 644.50 C1021.49,646.76 1010.86,647.18 1008.71,645.09 C1008.28,644.67 1009.53,642.12 1011.49,639.41 C1016.44,632.59 1019.25,626.36 1018.48,623.92 C1017.91,622.15 1017.29,621.98 1013.42,622.56 C1009.91,623.09 1009.00,622.93 1009.00,621.77 C1009.00,617.99 1016.36,615.04 1021.20,616.88 C1023.18,617.64 1024.07,618.84 1024.56,621.45 C1025.45,626.20 1024.67,628.81 1020.51,634.99 C1018.58,637.85 1017.00,640.38 1017.00,640.60 C1017.00,640.82 1018.55,641.00 1020.44,641.00 C1024.35,641.00 1025.89,642.57 1023.87,644.50 ZM 785.18 644.12 C784.81,644.47 781.90,645.00 778.72,645.30 C773.68,645.79 772.69,645.59 770.93,643.69 C769.76,642.44 769.04,640.49 769.21,639.05 C769.49,636.64 770.65,635.76 777.43,632.78 C782.11,630.73 781.84,629.00 776.83,628.98 C774.45,628.98 771.83,628.55 771.02,628.03 C769.85,627.29 770.35,626.75 773.37,625.49 C782.65,621.61 787.66,626.20 786.49,637.50 C786.14,640.80 785.56,643.78 785.18,644.12 ZM 945.81 649.85 C945.54,652.12 944.97,652.54 941.75,652.81 C937.59,653.15 936.91,651.97 940.07,649.87 C942.13,648.50 942.12,648.44 938.50,642.49 C935.53,637.60 934.95,635.80 935.34,632.71 C935.90,628.31 937.22,626.45 941.28,624.36 C943.66,623.12 944.74,623.06 947.10,624.04 C951.45,625.84 950.97,628.80 946.26,629.19 C941.60,629.58 939.12,633.45 941.10,637.23 C942.67,640.20 943.92,640.97 947.25,640.98 C950.50,641.00 950.85,642.93 948.06,645.45 C946.99,646.42 945.97,648.40 945.81,649.85 ZM 802.75 644.01 C798.66,646.50 795.87,646.52 792.86,644.09 L 790.51 642.18 L 794.26 641.48 C796.33,641.09 798.31,640.31 798.66,639.75 C799.01,639.18 797.43,637.17 795.15,635.28 C790.58,631.49 789.83,628.37 792.83,625.65 C795.94,622.84 804.00,623.92 804.00,627.15 C804.00,627.57 802.36,628.22 800.37,628.59 L 796.73 629.27 L 801.37 633.53 C806.94,638.64 807.28,641.25 802.75,644.01 ZM 824.97 641.15 C823.99,644.68 821.61,646.79 820.54,645.07 C820.26,644.61 819.73,639.11 819.38,632.86 C818.87,623.69 819.05,620.78 820.32,617.75 C823.55,610.08 826.00,614.66 825.99,628.32 C825.99,633.37 825.53,639.14 824.97,641.15 ZM 927.00 638.39 C927.00,640.72 926.40,643.44 925.67,644.43 C924.42,646.15 924.21,646.09 922.06,643.38 C919.97,640.75 919.82,639.81 920.37,632.57 C920.70,628.20 921.31,624.33 921.73,623.97 C922.15,623.60 924.97,623.57 927.99,623.90 C934.54,624.62 935.90,626.97 931.18,629.41 C927.71,631.20 927.00,632.72 927.00,638.39 ZM 760.17 644.35 C759.17,645.26 758.07,646.00 757.73,646.00 C756.60,646.00 755.75,636.93 756.41,631.93 C757.45,624.16 757.59,624.00 763.51,624.00 C768.39,624.00 768.77,624.17 768.27,626.08 C767.97,627.23 766.71,628.63 765.47,629.19 C763.25,630.21 762.04,634.02 762.01,640.10 C762.00,641.52 761.18,643.43 760.17,644.35 ZM 1037.00 640.50 C1039.02,642.94 1041.00,642.23 1042.55,638.53 C1045.31,631.93 1043.74,621.96 1039.83,621.21 C1035.83,620.44 1033.51,636.29 1037.00,640.50 ZM 814.08 645.00 C813.58,645.00 812.54,645.24 811.78,645.53 C811.02,645.82 810.08,645.75 809.70,645.36 C808.84,644.51 808.77,627.78 809.61,625.58 C810.44,623.41 812.71,623.60 813.96,625.93 C815.24,628.33 815.35,645.00 814.08,645.00 ZM 959.60 639.83 C962.08,643.38 965.22,642.32 966.93,637.35 C968.22,633.62 968.20,632.95 966.66,630.60 C965.60,628.98 964.04,628.00 962.52,628.00 C960.57,628.00 959.89,628.73 959.05,631.75 C957.69,636.67 957.72,637.15 959.60,639.83 ZM 738.05 639.56 C739.88,641.76 744.73,641.37 746.04,638.92 C747.65,635.91 744.66,632.80 740.55,633.20 C738.24,633.43 737.42,634.06 737.17,635.81 C736.99,637.07 737.39,638.76 738.05,639.56 ZM 739.01 627.29 C741.87,629.30 745.00,628.37 745.00,625.51 C745.00,622.80 743.21,621.13 739.92,620.77 C736.57,620.40 735.91,625.12 739.01,627.29 ZM 1079.09 634.61 C1080.29,636.05 1080.65,635.95 1082.71,633.55 C1085.13,630.73 1085.55,628.42 1084.06,626.06 C1082.87,624.19 1080.70,625.89 1078.99,630.03 C1077.99,632.43 1078.01,633.31 1079.09,634.61 ZM 847.82 634.75 C848.10,636.72 847.70,637.00 844.64,637.00 C841.29,637.00 838.00,634.95 838.00,632.87 C838.00,632.32 840.10,632.02 842.75,632.20 C846.80,632.46 847.55,632.83 847.82,634.75 ZM 994.50 634.50 C994.50,637.05 989.40,637.76 986.50,635.61 C983.66,633.51 985.74,631.78 990.62,632.18 C993.73,632.44 994.50,632.90 994.50,634.50 ZM 905.67 641.33 C906.03,641.70 907.41,642.00 908.73,642.00 C910.76,642.00 911.08,641.57 910.82,639.25 C910.57,637.09 909.91,636.43 907.75,636.18 C905.43,635.92 905.00,636.24 905.00,638.27 C905.00,639.59 905.30,640.97 905.67,641.33 ZM 814.36 619.50 C814.05,620.33 813.25,621.00 812.58,621.00 C811.92,621.00 810.51,620.33 809.44,619.50 C807.52,618.02 807.52,617.98 809.44,616.50 C810.51,615.67 811.92,615.00 812.58,615.00 C814.11,615.00 815.11,617.54 814.36,619.50 ZM 777.25 641.91 C779.04,642.58 779.66,642.33 780.28,640.69 C781.24,638.20 778.90,635.44 776.58,636.33 C774.20,637.25 774.64,640.93 777.25,641.91 Z" fill="rgb(26,80,55)"/>
<path d="M 408.20 649.96 C405.62,650.46 399.29,651.07 394.15,651.32 L 384.81 651.76 L 382.05 645.63 C380.54,642.26 372.05,624.88 363.20,607.00 C347.33,574.97 343.62,565.96 345.54,564.07 C345.76,563.86 347.04,563.59 349.03,563.29 C347.85,563.65 347.67,564.04 348.17,564.50 C348.90,565.17 354.45,568.77 360.50,572.50 C388.06,589.50 442.02,626.78 441.99,628.81 C441.98,629.19 438.51,631.75 434.27,634.50 C430.03,637.25 423.87,641.52 420.57,644.00 L 414.57 648.49 L 417.54 649.13 C418.24,649.28 419.09,649.41 420.07,649.51 C415.16,649.39 410.27,649.55 408.20,649.96 ZM 208.71 553.49 L 208.78 553.50 L 206.00 560.00 C204.47,563.58 200.63,572.58 197.46,580.00 C194.28,587.42 187.96,602.72 183.41,614.00 C178.86,625.28 174.55,634.80 173.82,635.16 C171.75,636.19 144.43,640.02 132.38,640.97 C128.00,641.31 122.88,642.00 119.26,642.69 C120.21,642.36 120.97,642.01 121.48,641.64 C122.97,640.55 122.07,639.66 114.01,634.33 L 104.84 628.25 L 107.67 626.30 C109.23,625.23 113.20,622.86 116.50,621.03 C124.90,616.37 141.17,605.36 153.35,596.07 C159.03,591.74 165.92,587.06 168.68,585.66 C171.44,584.26 178.15,579.80 183.60,575.75 C189.04,571.70 196.16,566.83 199.41,564.93 C204.02,562.23 205.70,560.57 207.08,557.33 ZM 346.56 632.33 C348.05,620.44 343.76,603.00 336.31,590.63 C332.35,584.07 318.17,569.37 311.21,564.61 C307.03,561.75 306.95,561.74 304.88,563.61 C304.50,563.95 304.04,564.46 303.57,565.06 L 305.88 561.07 L 313.69 561.41 C317.98,561.60 324.81,562.10 328.86,562.53 L 336.22 563.31 L 346.39 583.90 C359.39,610.22 367.85,628.98 376.06,649.75 C376.91,651.90 376.74,651.99 372.23,651.85 C369.63,651.77 362.40,651.27 356.16,650.73 L 344.83 649.77 L 345.16 644.25 L 345.50 638.74 L 334.50 630.58 C330.72,627.77 327.61,625.51 324.86,623.59 C328.64,626.15 332.60,629.02 337.00,632.34 C341.12,635.45 344.80,638.00 345.17,638.00 C345.55,638.00 346.17,635.45 346.56,632.33 ZM 257.95 610.59 C245.31,609.53 203.91,609.04 204.56,610.09 C204.81,610.50 204.54,610.99 203.97,611.18 C202.54,611.65 201.82,635.43 203.18,636.61 C203.16,636.60 203.14,636.59 203.12,636.58 C202.51,636.19 202.00,635.18 202.00,634.33 C202.00,633.18 201.53,633.36 200.18,635.02 C198.48,637.13 197.88,637.22 190.69,636.55 C186.47,636.15 182.78,635.45 182.49,634.98 C180.97,632.52 199.86,586.15 213.17,559.66 L 217.11 551.82 L 226.95 552.16 C238.77,552.57 241.56,554.14 240.63,559.87 C240.24,562.33 240.40,564.02 242.40,567.33 C241.34,565.85 240.63,564.81 240.41,564.44 C239.41,562.71 238.85,562.95 232.88,567.70 C229.34,570.51 224.32,575.08 221.74,577.85 C217.01,582.91 209.00,594.49 209.00,596.27 C209.00,596.87 215.99,597.00 227.75,596.60 C232.08,596.46 236.67,596.39 240.85,596.39 C227.65,596.43 210.57,597.17 208.90,598.06 C207.10,599.01 203.44,607.77 204.43,608.76 C204.78,609.11 215.74,609.47 228.78,609.56 C243.69,609.65 251.30,609.81 257.95,610.59 ZM 870.27 618.33 C872.38,620.35 874.41,623.61 875.66,627.60 C876.61,630.59 877.79,632.90 878.30,632.73 C878.76,632.58 879.80,630.73 880.73,628.45 C880.58,628.85 880.45,629.24 880.32,629.64 C879.39,632.59 878.37,635.00 878.05,635.00 C877.73,635.00 876.92,632.66 876.24,629.80 C875.11,625.05 872.75,620.84 870.27,618.33 ZM 417.07 558.65 L 423.69 558.70 L 433.60 564.50 C425.42,559.72 424.30,559.17 417.07,558.65 ZM 301.06 568.89 C301.01,568.97 300.97,569.06 300.93,569.15 C299.90,571.15 297.64,573.85 295.89,575.15 C295.08,575.76 294.29,576.38 293.52,577.02 C294.43,576.15 295.41,575.20 296.50,574.17 C297.89,572.84 299.61,570.83 301.06,568.89 ZM 375.47 560.80 C379.72,560.41 383.69,560.02 386.50,559.71 C388.74,559.47 391.64,559.24 394.77,559.06 C390.19,559.61 382.17,560.33 375.47,560.80 ZM 448.20 648.61 C453.21,648.00 462.91,647.44 471.81,647.22 C463.03,647.47 453.15,648.07 447.50,648.73 C441.64,649.42 436.03,649.79 430.80,649.82 C436.29,649.72 442.52,649.31 448.20,648.61 ZM 294.73 620.00 C307.29,624.90 318.82,631.54 331.25,640.85 C319.20,631.83 307.37,625.02 294.73,620.00 ZM 152.50 554.09 C147.04,554.77 142.04,555.62 137.32,556.76 C141.89,555.65 146.73,554.79 152.00,554.10 C153.74,553.87 156.03,553.65 158.67,553.46 C156.43,553.65 154.35,553.86 152.50,554.09 ZM 863.11 617.81 C861.76,620.39 861.11,625.69 861.14,630.92 C861.07,625.74 861.67,620.48 863.00,618.01 C863.03,617.94 863.07,617.87 863.11,617.81 ZM 253.09 581.94 C256.19,586.13 258.61,589.70 260.13,592.35 C258.80,590.10 256.14,586.16 253.09,581.94 ZM 260.94 593.85 C260.90,593.77 260.86,593.67 260.81,593.56 C261.59,595.04 262.00,596.13 262.00,596.76 C262.00,596.80 261.97,596.84 261.92,596.87 C261.82,596.26 261.46,595.11 260.94,593.85 ZM 286.15 584.82 C284.32,587.26 282.65,589.96 281.06,593.00 C282.84,589.59 284.20,587.28 286.15,584.82 ZM 881.65 626.16 C883.56,621.76 886.26,618.02 888.44,616.60 C886.27,618.03 883.56,621.85 881.65,626.16 ZM 198.86 552.43 C200.46,552.49 201.75,552.58 202.64,552.70 L 202.88 552.73 L 199.41 552.47 C199.23,552.45 199.05,552.44 198.86,552.43 ZM 299.67 609.73 C302.24,610.85 304.66,611.97 307.00,613.12 C306.01,612.65 304.98,612.16 303.88,611.65 C302.39,610.96 301.01,610.33 299.67,609.73 ZM 112.50 644.17 C111.55,644.31 110.50,644.45 109.40,644.56 C110.47,644.44 111.51,644.31 112.50,644.17 ZM 866.10 644.14 C865.89,644.47 865.65,644.69 865.40,644.78 C865.65,644.67 865.89,644.46 866.10,644.14 Z" fill="rgb(222,190,57)"/>
<path d="M 0.00 384.00 L 0.00 0.00 L 682.50 0.00 L 1365.00 0.00 L 1365.00 384.00 L 1365.00 768.00 L 682.50 768.00 L 0.00 768.00 L 0.00 384.00 ZM 35.04 651.56 C49.25,649.77 52.20,648.74 55.49,644.42 C57.41,641.90 58.87,641.00 61.02,641.00 C62.63,641.00 65.76,640.05 67.98,638.90 C70.43,637.62 72.70,637.07 73.76,637.51 C75.06,638.05 74.37,638.52 71.03,639.37 C67.90,640.16 66.11,641.31 65.06,643.19 C63.07,646.74 64.41,647.91 67.32,645.17 C69.99,642.66 71.74,642.49 74.38,644.49 C76.02,645.73 76.65,645.72 79.15,644.42 C81.45,643.24 82.85,643.15 86.03,644.01 C92.13,645.65 109.59,645.32 116.00,643.44 C119.03,642.55 126.40,641.44 132.38,640.97 C144.43,640.02 171.75,636.19 173.82,635.16 C174.55,634.80 178.86,625.28 183.41,614.00 C187.96,602.72 194.28,587.42 197.46,580.00 C200.63,572.58 204.47,563.58 206.00,560.00 L 208.78 553.50 L 202.64 552.70 C195.48,551.76 162.90,552.66 152.00,554.10 C121.37,558.14 105.29,567.55 72.00,600.95 C63.47,609.50 48.06,624.29 37.75,633.82 C27.44,643.35 19.00,651.56 19.00,652.07 C19.00,653.33 21.62,653.25 35.04,651.56 ZM 945.81 649.85 C945.97,648.40 946.99,646.42 948.06,645.45 C950.85,642.93 950.50,641.00 947.25,640.98 C943.92,640.97 942.67,640.20 941.10,637.23 C939.12,633.45 941.60,629.58 946.26,629.19 C950.97,628.80 951.45,625.84 947.10,624.04 C944.74,623.06 943.66,623.12 941.28,624.36 C937.22,626.45 935.90,628.31 935.34,632.71 C934.95,635.80 935.53,637.60 938.50,642.49 C942.12,648.44 942.13,648.50 940.07,649.87 C936.91,651.97 937.59,653.15 941.75,652.81 C944.97,652.54 945.54,652.12 945.81,649.85 ZM 376.06 649.75 C367.85,628.98 359.39,610.22 346.39,583.90 L 336.22 563.31 L 328.86 562.53 C324.81,562.10 317.98,561.60 313.69,561.41 L 305.88 561.07 L 303.19 565.72 C301.71,568.28 298.70,572.08 296.50,574.17 C286.67,583.51 284.82,585.77 280.97,593.17 C278.02,598.85 277.25,601.15 278.19,601.48 C291.04,606.01 295.78,607.89 303.88,611.65 C315.43,617.01 320.09,619.89 334.50,630.58 L 345.50 638.74 L 345.16 644.25 L 344.83 649.77 L 356.16 650.73 C362.40,651.27 369.63,651.77 372.23,651.85 C376.74,651.99 376.91,651.90 376.06,649.75 ZM 408.20 649.96 C410.79,649.45 417.76,649.32 423.70,649.65 C430.85,650.06 438.90,649.75 447.50,648.73 C454.65,647.89 468.60,647.15 478.50,647.10 C499.84,646.97 529.57,645.34 531.66,644.17 C532.81,643.53 531.36,641.75 525.32,636.36 C514.48,626.69 502.13,616.53 491.50,608.54 C486.55,604.82 478.44,597.89 473.49,593.14 C464.13,584.17 450.61,574.47 433.60,564.50 L 423.69 558.70 L 410.60 558.60 C403.39,558.55 392.55,559.05 386.50,559.71 C380.45,560.38 368.98,561.42 361.00,562.03 C353.02,562.64 346.07,563.56 345.54,564.07 C343.62,565.96 347.33,574.97 363.20,607.00 C372.05,624.88 380.54,642.26 382.05,645.63 L 384.81 651.76 L 394.15 651.32 C399.29,651.07 405.62,650.46 408.20,649.96 ZM 333.45 646.84 C334.85,646.20 336.00,645.39 336.00,645.04 C336.00,644.70 333.86,642.81 331.25,640.85 C312.20,626.59 295.27,618.57 273.50,613.54 C258.54,610.07 254.61,609.72 228.78,609.56 C215.74,609.47 204.78,609.11 204.43,608.76 C203.44,607.77 207.10,599.01 208.90,598.06 C211.30,596.79 245.36,595.82 254.25,596.77 C258.51,597.22 262.00,597.22 262.00,596.76 C262.00,594.72 257.60,587.74 250.49,578.50 C240.98,566.14 239.94,564.17 240.63,559.87 C241.56,554.14 238.77,552.57 226.95,552.16 L 217.11 551.82 L 213.17 559.66 C199.86,586.15 180.97,632.52 182.49,634.98 C182.78,635.45 186.47,636.15 190.69,636.55 C197.88,637.22 198.48,637.13 200.18,635.02 C201.53,633.36 202.00,633.18 202.00,634.33 C202.00,635.18 202.51,636.19 203.12,636.58 C204.90,637.67 235.32,640.03 260.50,641.02 C273.15,641.52 285.98,642.38 289.00,642.93 C317.83,648.20 328.42,649.13 333.45,646.84 ZM 1023.87 644.50 C1025.89,642.57 1024.35,641.00 1020.44,641.00 C1018.55,641.00 1017.00,640.82 1017.00,640.60 C1017.00,640.38 1018.58,637.85 1020.51,634.99 C1024.67,628.81 1025.45,626.20 1024.56,621.45 C1024.07,618.84 1023.18,617.64 1021.20,616.88 C1016.36,615.04 1009.00,617.99 1009.00,621.77 C1009.00,622.93 1009.91,623.09 1013.42,622.56 C1017.29,621.98 1017.91,622.15 1018.48,623.92 C1019.25,626.36 1016.44,632.59 1011.49,639.41 C1009.53,642.12 1008.28,644.67 1008.71,645.09 C1010.86,647.18 1021.49,646.76 1023.87,644.50 ZM 745.98 644.17 C751.72,641.97 753.26,638.50 750.65,633.64 C749.29,631.12 749.04,629.20 749.56,625.27 C750.21,620.34 750.14,620.12 747.22,618.61 C742.91,616.38 736.66,615.58 734.13,616.93 C732.12,618.01 732.00,618.82 732.00,631.45 C732.00,641.22 732.34,644.97 733.25,645.34 C735.81,646.37 741.64,645.84 745.98,644.17 ZM 760.17 644.35 C761.18,643.43 762.00,641.52 762.01,640.10 C762.04,634.02 763.25,630.21 765.47,629.19 C766.71,628.63 767.97,627.23 768.27,626.08 C768.77,624.17 768.39,624.00 763.51,624.00 C757.59,624.00 757.45,624.16 756.41,631.93 C755.75,636.93 756.60,646.00 757.73,646.00 C758.07,646.00 759.17,645.26 760.17,644.35 ZM 785.18 644.12 C785.56,643.78 786.14,640.80 786.49,637.50 C787.66,626.20 782.65,621.61 773.37,625.49 C770.35,626.75 769.85,627.29 771.02,628.03 C771.83,628.55 774.45,628.98 776.83,628.98 C781.84,629.00 782.11,630.73 777.43,632.78 C770.65,635.76 769.49,636.64 769.21,639.05 C769.04,640.49 769.76,642.44 770.93,643.69 C772.69,645.59 773.68,645.79 778.72,645.30 C781.90,645.00 784.81,644.47 785.18,644.12 ZM 802.75 644.01 C807.28,641.25 806.94,638.64 801.37,633.53 L 796.73 629.27 L 800.37 628.59 C802.36,628.22 804.00,627.57 804.00,627.15 C804.00,623.92 795.94,622.84 792.83,625.65 C789.83,628.37 790.58,631.49 795.15,635.28 C797.43,637.17 799.01,639.18 798.66,639.75 C798.31,640.31 796.33,641.09 794.26,641.48 L 790.51 642.18 L 792.86 644.09 C795.87,646.52 798.66,646.50 802.75,644.01 ZM 814.08 645.00 C815.35,645.00 815.24,628.33 813.96,625.93 C812.71,623.60 810.44,623.41 809.61,625.58 C808.77,627.78 808.84,644.51 809.70,645.36 C810.08,645.75 811.02,645.82 811.78,645.53 C812.54,645.24 813.58,645.00 814.08,645.00 ZM 824.97 641.15 C825.53,639.14 825.99,633.37 825.99,628.32 C826.00,614.66 823.55,610.08 820.32,617.75 C819.05,620.78 818.87,623.69 819.38,632.86 C819.73,639.11 820.26,644.61 820.54,645.07 C821.61,646.79 823.99,644.68 824.97,641.15 ZM 881.55 640.28 C884.08,634.57 886.60,631.00 888.11,631.00 C888.55,631.00 889.04,634.03 889.20,637.74 C889.43,642.99 889.86,644.55 891.11,644.79 C893.68,645.27 895.51,639.40 895.42,631.00 C895.32,622.15 893.14,616.00 890.10,616.00 C887.60,616.00 883.42,621.38 881.04,627.65 C880.04,630.28 878.81,632.56 878.30,632.73 C877.79,632.90 876.61,630.59 875.66,627.60 C872.74,618.33 865.68,612.99 863.00,618.01 C860.29,623.07 860.60,639.72 863.47,643.61 C865.68,646.61 867.10,644.12 867.90,635.86 L 868.60 628.50 L 872.74 637.25 C875.01,642.06 877.36,646.00 877.95,646.00 C878.54,646.00 880.16,643.43 881.55,640.28 ZM 916.36 642.25 C918.12,631.61 915.81,624.81 910.04,623.66 C906.21,622.89 900.00,625.24 900.00,627.45 C900.00,629.26 902.27,629.46 905.18,627.90 C906.77,627.05 907.57,627.14 908.73,628.31 C910.66,630.24 909.79,631.55 904.97,634.02 C901.12,635.98 899.00,638.55 899.00,641.25 C899.00,643.44 905.02,645.87 910.62,645.94 L 915.74 646.00 L 916.36 642.25 ZM 927.00 638.39 C927.00,632.72 927.71,631.20 931.18,629.41 C935.90,626.97 934.54,624.62 927.99,623.90 C924.97,623.57 922.15,623.60 921.73,623.97 C921.31,624.33 920.70,628.20 920.37,632.57 C919.82,639.81 919.97,640.75 922.06,643.38 C924.21,646.09 924.42,646.15 925.67,644.43 C926.40,643.44 927.00,640.72 927.00,638.39 ZM 967.03 644.48 C972.45,641.68 974.45,634.71 971.49,628.98 C969.57,625.28 967.17,624.00 962.11,624.00 C958.42,624.00 957.87,624.36 955.54,628.34 C952.64,633.29 952.35,636.84 954.50,641.00 C957.12,646.06 961.58,647.30 967.03,644.48 ZM 1045.35 643.16 C1048.96,639.39 1050.28,631.52 1048.48,624.56 C1046.86,618.33 1043.88,615.65 1039.59,616.57 C1034.84,617.59 1033.40,618.64 1031.63,622.37 C1028.61,628.73 1030.30,642.87 1034.31,644.80 C1038.42,646.79 1042.44,646.19 1045.35,643.16 ZM 1068.46 644.65 C1071.23,642.63 1069.43,641.00 1064.44,641.00 C1062.00,641.00 1060.00,640.65 1060.00,640.23 C1060.00,639.80 1061.28,637.89 1062.85,635.98 C1066.48,631.56 1069.00,626.68 1069.00,624.07 C1069.00,622.95 1067.73,620.61 1066.18,618.88 C1063.55,615.93 1063.05,615.77 1058.76,616.41 C1053.81,617.15 1051.42,619.05 1052.36,621.50 C1052.81,622.67 1053.87,622.89 1056.87,622.40 C1060.24,621.87 1060.89,622.07 1061.44,623.82 C1062.28,626.45 1060.28,631.13 1055.19,638.47 C1052.94,641.71 1051.33,644.73 1051.61,645.18 C1052.47,646.57 1066.43,646.13 1068.46,644.65 ZM 1090.00 641.84 C1092.88,637.86 1092.95,637.57 1091.40,635.21 C1090.24,633.44 1089.97,631.61 1090.43,628.74 C1091.65,621.11 1087.69,615.37 1082.58,617.33 C1080.85,617.99 1073.10,633.51 1072.75,637.00 C1072.52,639.32 1072.77,639.48 1076.31,639.16 C1079.63,638.87 1080.54,639.30 1083.31,642.41 C1085.07,644.38 1086.61,645.99 1086.74,645.99 C1086.88,646.00 1088.34,644.13 1090.00,641.84 ZM 847.82 634.75 C847.55,632.83 846.80,632.46 842.75,632.20 C840.10,632.02 838.00,632.32 838.00,632.87 C838.00,634.95 841.29,637.00 844.64,637.00 C847.70,637.00 848.10,636.72 847.82,634.75 ZM 994.50 634.50 C994.50,632.90 993.73,632.44 990.62,632.18 C985.74,631.78 983.66,633.51 986.50,635.61 C989.40,637.76 994.50,637.05 994.50,634.50 ZM 814.36 619.50 C815.11,617.54 814.11,615.00 812.58,615.00 C811.92,615.00 810.51,615.67 809.44,616.50 C807.52,617.98 807.52,618.02 809.44,619.50 C810.51,620.33 811.92,621.00 812.58,621.00 C813.25,621.00 814.05,620.33 814.36,619.50 ZM 283.18 581.22 C295.65,568.28 299.52,558.62 297.02,546.61 C296.35,543.39 294.76,539.68 293.30,537.94 C289.62,533.57 282.26,530.18 274.78,529.42 C267.70,528.69 261.95,530.51 255.30,535.59 C247.27,541.71 245.36,554.80 250.81,566.35 C256.37,578.14 267.24,589.91 272.61,589.98 C273.97,589.99 277.72,586.88 283.18,581.22 ZM 627.50 582.73 C632.43,579.98 637.00,571.70 636.99,565.57 C636.98,559.82 632.86,551.49 628.80,549.02 C624.15,546.18 616.36,546.29 611.90,549.26 C602.21,555.70 601.55,571.90 610.64,580.38 C615.81,585.20 621.62,586.02 627.50,582.73 ZM 686.55 584.00 C688.75,584.00 695.17,577.83 696.65,574.30 C698.79,569.18 698.37,560.15 695.75,554.97 C693.17,549.87 688.03,546.00 683.81,546.00 C677.98,546.00 670.25,551.55 668.07,557.32 C665.43,564.26 667.83,575.93 672.79,580.35 C675.32,582.60 682.01,585.09 683.83,584.46 C684.56,584.21 685.79,584.00 686.55,584.00 ZM 769.49 582.60 C770.87,581.69 773.16,579.13 774.56,576.91 C776.81,573.35 776.98,572.47 776.00,569.51 C774.69,565.53 773.35,564.31 766.64,561.00 C760.14,557.79 759.15,555.48 764.62,556.25 C766.75,556.55 769.29,557.12 770.26,557.51 C771.62,558.06 772.34,557.42 773.51,554.64 C774.33,552.67 775.00,550.65 775.00,550.14 C775.00,548.76 767.43,546.00 763.73,546.02 C756.20,546.07 748.00,552.41 748.00,558.18 C748.00,561.92 751.13,565.02 758.81,568.90 C762.13,570.58 765.14,572.42 765.49,572.98 C766.59,574.77 762.85,575.38 758.60,574.11 C750.16,571.58 750.35,571.56 749.13,575.06 C747.48,579.79 747.52,579.87 753.25,582.59 C759.17,585.41 765.20,585.41 769.49,582.60 ZM 794.00 583.00 C795.78,581.22 796.00,579.67 796.00,568.66 L 796.00 556.33 L 800.25 556.41 L 804.50 556.50 L 804.80 551.75 L 805.11 547.00 L 791.55 547.00 L 778.00 547.00 L 778.00 552.00 L 778.00 557.00 L 781.87 557.00 L 785.73 557.00 L 785.62 568.75 C785.49,581.32 786.49,585.00 790.04,585.00 C791.12,585.00 792.90,584.10 794.00,583.00 ZM 813.09 580.88 C815.53,577.45 818.67,577.16 822.32,580.03 C829.74,585.87 833.00,585.59 833.00,579.12 C833.00,575.52 829.98,563.63 826.37,553.00 L 824.50 547.50 L 818.31 547.20 L 812.11 546.91 L 810.07 553.75 C808.42,559.32 802.03,583.01 802.01,583.68 C802.00,583.78 803.01,584.01 804.25,584.20 C808.32,584.81 811.00,583.80 813.09,580.88 ZM 856.10 582.45 C858.04,581.45 859.90,579.23 861.12,576.46 L 863.07 572.06 L 860.72 567.44 C858.73,563.52 857.54,562.49 852.96,560.66 C849.98,559.47 847.66,558.05 847.80,557.50 C848.09,556.36 852.27,556.31 856.07,557.39 C858.44,558.07 858.75,557.79 859.90,553.92 C861.56,548.39 861.37,548.26 848.91,546.64 C844.57,546.08 838.16,549.32 836.28,553.02 C834.34,556.87 834.73,561.58 837.25,564.49 C838.49,565.92 842.41,568.14 845.96,569.42 C856.41,573.19 854.69,576.63 843.85,573.62 C840.57,572.71 837.46,572.22 836.94,572.54 C836.42,572.86 836.00,574.84 836.00,576.94 C836.00,580.87 837.92,583.03 842.54,584.32 C845.61,585.18 852.73,584.19 856.10,582.45 ZM 926.28 583.62 C930.17,581.96 934.49,577.52 935.94,573.68 C937.79,568.77 937.23,559.88 934.75,554.96 C932.23,549.96 925.90,546.00 920.44,546.00 C916.24,546.00 909.58,550.94 907.03,555.95 C903.52,562.81 904.81,573.75 909.79,579.35 C911.76,581.57 918.65,584.95 921.28,584.98 C922.26,584.99 924.51,584.38 926.28,583.62 ZM 1108.00 581.73 C1113.88,578.81 1115.60,574.71 1112.12,571.90 C1109.07,569.43 1108.01,569.50 1103.60,572.50 C1101.57,573.88 1099.28,575.00 1098.51,575.00 C1094.07,575.00 1092.13,561.87 1096.00,558.00 C1098.65,555.35 1100.57,555.48 1103.59,558.50 C1106.67,561.58 1106.68,561.58 1111.37,558.40 L 1115.19 555.80 L 1111.85 552.31 C1105.55,545.76 1100.75,544.56 1094.21,547.89 C1087.36,551.39 1084.00,557.18 1084.00,565.49 C1084.00,573.02 1086.77,578.26 1092.80,582.11 C1098.11,585.51 1100.50,585.45 1108.00,581.73 ZM 1242.26 582.05 C1248.29,578.23 1251.31,572.51 1251.33,564.92 C1251.35,549.93 1237.27,541.22 1226.42,549.49 C1220.78,553.80 1219.01,557.51 1219.00,565.05 C1219.00,573.42 1222.48,579.55 1229.12,582.83 C1234.88,585.68 1236.71,585.57 1242.26,582.05 ZM 574.00 575.50 L 574.50 567.50 L 577.35 572.25 C579.64,576.08 580.73,577.00 582.94,577.00 C586.08,577.00 588.25,574.96 590.42,569.97 C591.91,566.53 591.92,566.58 591.96,575.31 L 592.00 584.11 L 596.25 583.81 L 600.50 583.50 L 600.77 566.07 C601.08,546.92 601.11,547.04 594.96,547.02 C591.48,547.00 591.35,547.14 587.59,555.50 C585.48,560.17 583.40,564.00 582.96,564.00 C582.52,564.00 581.41,561.74 580.49,558.98 C579.58,556.22 577.32,552.36 575.48,550.41 C572.74,547.50 571.54,546.92 568.82,547.18 C565.53,547.50 565.50,547.55 565.00,553.50 C564.72,556.80 564.64,565.04 564.81,571.80 L 565.12 584.11 L 569.31 583.80 L 573.50 583.50 L 574.00 575.50 ZM 656.78 570.25 L 657.06 557.00 L 659.84 557.00 C664.19,557.00 666.21,554.96 665.83,550.96 L 665.50 547.50 L 653.24 547.22 C640.60,546.93 637.00,547.71 637.00,550.72 C637.00,553.66 641.08,557.00 644.67,557.00 L 648.00 557.00 L 648.00 570.56 L 648.00 584.11 L 652.25 583.81 L 656.50 583.50 L 656.78 570.25 ZM 713.00 581.06 C713.00,576.50 714.98,576.23 718.42,580.33 C721.08,583.50 722.08,584.00 725.75,584.00 C728.09,584.00 730.00,583.59 730.00,583.08 C730.00,582.58 729.08,580.02 727.96,577.40 L 725.91 572.63 L 727.96 567.88 C730.36,562.29 730.54,558.22 728.58,553.53 C726.47,548.49 722.70,547.00 712.05,547.00 L 703.00 547.00 L 703.00 564.83 C703.00,574.64 703.30,582.97 703.67,583.33 C704.03,583.70 706.28,584.00 708.67,584.00 C712.80,584.00 713.00,583.86 713.00,581.06 ZM 744.18 579.50 C745.08,574.39 745.19,557.67 744.36,551.64 L 743.73 547.00 L 739.49 547.00 C735.54,547.00 735.21,547.21 734.62,550.12 C733.76,554.45 733.84,582.50 734.71,583.38 C735.11,583.77 737.24,583.96 739.45,583.80 C743.29,583.51 743.51,583.32 744.18,579.50 ZM 885.00 581.08 C885.00,576.08 885.89,575.00 890.03,575.00 C892.69,575.00 894.79,574.21 896.96,572.38 C904.78,565.80 904.99,556.99 897.52,550.00 C895.05,547.69 894.11,547.50 885.17,547.50 L 875.50 547.50 L 875.22 564.46 C875.07,573.79 875.17,582.01 875.44,582.71 C875.75,583.50 877.70,584.00 880.47,584.00 C884.81,584.00 885.00,583.88 885.00,581.08 ZM 952.00 580.58 C952.61,577.01 954.50,576.19 955.93,578.86 C957.85,582.47 960.10,584.00 963.45,584.00 C968.53,584.00 969.55,581.99 966.98,576.97 L 964.85 572.78 L 966.92 567.96 C970.55,559.53 968.98,551.77 963.08,548.93 C961.66,548.24 956.34,547.47 951.25,547.22 L 942.00 546.76 L 942.00 564.71 C942.00,574.59 942.32,582.99 942.71,583.38 C943.11,583.77 945.24,583.96 947.46,583.80 C951.04,583.53 951.55,583.17 952.00,580.58 ZM 989.18 581.50 C990.14,579.41 991.01,579.00 994.55,579.00 C997.95,579.00 999.09,579.49 1000.41,581.50 C1001.70,583.47 1002.88,584.00 1006.02,584.00 C1009.15,584.00 1010.00,583.62 1009.99,582.25 C1009.99,581.29 1007.96,573.14 1005.49,564.15 C1003.02,555.16 1001.00,547.62 1001.00,547.40 C1001.00,547.18 998.35,547.00 995.12,547.00 C989.65,547.00 989.16,547.19 988.11,549.75 C986.38,553.94 979.27,582.94 979.84,583.50 C980.11,583.78 982.07,584.00 984.19,584.00 C987.33,584.00 988.25,583.54 989.18,581.50 ZM 1023.28 579.71 C1024.25,577.62 1025.61,575.76 1026.28,575.57 C1026.95,575.38 1029.43,574.70 1031.80,574.06 C1039.35,572.01 1042.28,562.75 1038.43,553.12 C1036.58,548.50 1035.63,548.14 1023.40,547.33 C1014.43,546.73 1014.30,546.76 1013.67,549.11 C1012.84,552.19 1012.83,575.34 1013.65,580.30 C1014.26,583.96 1014.41,584.09 1017.89,583.80 C1020.96,583.54 1021.76,582.94 1023.28,579.71 ZM 1067.39 582.42 C1067.73,581.55 1068.00,579.52 1068.00,577.92 L 1068.00 575.00 L 1061.60 575.00 L 1055.21 575.00 L 1054.85 562.65 C1054.46,548.84 1053.71,547.00 1048.49,547.00 C1045.96,547.00 1045.10,547.50 1044.63,549.25 C1043.81,552.33 1043.84,582.50 1044.67,583.33 C1045.03,583.70 1050.16,584.00 1056.06,584.00 C1064.92,584.00 1066.89,583.72 1067.39,582.42 ZM 1080.53 577.54 C1080.91,573.99 1081.05,566.09 1080.84,559.99 C1080.43,547.86 1080.02,547.04 1074.34,547.02 L 1071.18 547.00 L 1070.46 555.65 C1069.48,567.41 1070.37,581.98 1072.13,583.10 C1072.88,583.58 1074.93,583.98 1076.67,583.98 C1079.83,584.00 1079.84,583.99 1080.53,577.54 ZM 1124.83 580.63 C1125.14,577.90 1125.35,577.78 1129.11,578.29 C1131.77,578.64 1133.74,579.67 1135.11,581.41 C1136.75,583.50 1138.00,584.00 1141.59,584.00 C1145.93,584.00 1146.02,583.93 1145.41,581.25 C1143.22,571.57 1141.53,565.34 1138.76,556.71 L 1135.62 546.91 L 1130.17 547.21 L 1124.72 547.50 L 1121.87 555.50 C1118.53,564.88 1115.00,578.37 1115.00,581.75 C1115.00,583.94 1115.34,584.09 1119.75,583.80 C1124.15,583.52 1124.52,583.29 1124.83,580.63 ZM 1162.00 570.50 L 1162.00 557.00 L 1165.38 557.00 C1167.24,557.00 1169.32,556.33 1170.00,555.50 C1170.68,554.67 1171.57,554.00 1171.97,554.00 C1172.37,554.00 1172.68,559.74 1172.65,566.75 C1172.59,582.10 1173.29,584.00 1179.04,584.00 L 1183.00 584.00 L 1183.00 565.50 L 1183.00 547.00 L 1178.00 547.00 C1174.34,547.00 1173.00,547.38 1173.00,548.42 C1173.00,549.62 1172.47,549.58 1169.77,548.23 C1167.33,547.02 1163.89,546.66 1155.74,546.77 C1149.81,546.85 1144.51,547.18 1143.98,547.51 C1143.44,547.85 1143.00,549.39 1143.00,550.94 C1143.00,554.04 1146.41,557.00 1149.96,557.00 C1151.91,557.00 1152.00,557.59 1152.00,570.50 L 1152.00 584.00 L 1157.00 584.00 L 1162.00 584.00 L 1162.00 570.50 ZM 1211.00 572.50 C1212.55,566.45 1214.55,559.77 1215.46,557.65 C1216.37,555.53 1216.97,552.38 1216.81,550.65 C1216.52,547.68 1216.24,547.48 1211.98,547.20 L 1207.47 546.91 L 1205.11 556.95 C1203.81,562.48 1202.43,567.00 1202.04,567.00 C1201.24,567.00 1199.35,559.15 1198.36,551.75 L 1197.73 547.00 L 1192.36 547.00 C1187.17,547.00 1187.00,547.09 1187.04,549.75 C1187.10,554.86 1194.19,580.20 1196.28,582.80 C1196.96,583.64 1199.20,583.99 1202.76,583.80 L 1208.20 583.50 L 1211.00 572.50 ZM 240.57 513.44 C251.39,508.23 261.43,506.00 274.07,506.00 C283.34,506.00 286.10,506.42 294.16,509.05 C303.65,512.15 315.85,518.22 325.69,524.76 L 331.12 528.37 L 342.79 516.70 L 354.46 505.03 L 350.98 502.03 C344.91,496.80 330.75,487.38 323.50,483.75 C303.60,473.77 277.99,469.94 255.24,473.54 C232.07,477.21 211.51,486.58 196.47,500.31 L 191.50 504.85 L 198.00 511.66 C201.57,515.40 206.92,520.79 209.89,523.63 L 215.27 528.79 L 224.33 522.84 C229.31,519.56 236.62,515.33 240.57,513.44 ZM 881.77 519.45 C886.71,517.39 889.88,514.34 892.11,509.50 C896.54,499.90 891.98,487.59 882.68,484.07 C873.30,480.51 863.93,485.21 859.17,495.86 C857.59,499.40 857.41,500.90 858.22,503.86 C860.72,512.95 864.06,516.83 871.76,519.58 C876.61,521.31 877.35,521.30 881.77,519.45 ZM 1004.12 517.92 C1006.11,516.92 1009.19,514.87 1010.97,513.38 L 1014.20 510.65 L 1010.85 508.87 C1006.72,506.67 1003.13,506.51 1002.36,508.50 C1001.99,509.47 1000.44,510.00 997.98,510.00 C994.96,510.00 993.64,509.37 991.59,506.92 C988.46,503.21 988.31,500.15 991.07,496.63 C992.66,494.61 994.03,494.00 996.95,494.00 C999.11,494.00 1001.29,494.65 1002.00,495.50 C1002.68,496.33 1003.84,497.00 1004.57,497.00 C1006.21,497.00 1013.00,493.05 1013.00,492.10 C1013.00,491.71 1011.41,489.85 1009.46,487.96 C1006.19,484.79 1005.37,484.51 998.50,484.16 C992.19,483.84 990.55,484.12 987.52,485.99 C982.48,489.10 980.57,493.21 980.53,501.07 C980.49,509.76 983.75,515.05 991.31,518.56 C996.74,521.08 997.98,521.02 1004.12,517.92 ZM 1201.48 519.07 C1207.76,517.57 1210.04,516.52 1212.18,514.12 C1219.68,505.74 1217.20,490.70 1207.51,485.74 C1204.34,484.12 1201.66,483.70 1194.67,483.72 C1189.65,483.74 1185.37,484.23 1184.75,484.85 C1183.21,486.39 1183.24,511.68 1184.79,515.30 C1185.45,516.84 1187.44,518.72 1189.24,519.51 C1193.31,521.27 1192.12,521.32 1201.48,519.07 ZM 587.79 512.25 C587.96,508.26 588.41,505.00 588.79,505.00 C589.18,505.00 590.40,506.69 591.50,508.75 C593.18,511.91 594.08,512.55 597.19,512.81 C600.57,513.09 601.06,512.78 603.19,509.06 C604.46,506.84 605.82,505.01 606.21,505.01 C606.59,505.00 607.04,508.26 607.21,512.25 L 607.50 519.50 L 612.00 519.50 L 616.50 519.50 L 617.15 514.00 C618.03,506.54 618.14,494.28 617.36,488.64 L 616.73 484.00 L 612.45 484.00 C607.71,484.00 605.93,485.58 600.72,494.46 C597.38,500.13 596.67,499.82 591.38,490.35 L 587.83 484.00 L 582.51 484.00 L 577.19 484.00 L 576.48 493.48 C574.94,513.93 576.78,520.40 583.95,519.80 L 587.50 519.50 L 587.79 512.25 ZM 647.54 518.12 C655.85,514.35 660.35,505.50 658.15,497.27 C656.48,491.02 653.46,487.11 648.60,484.91 C641.73,481.79 632.98,482.99 627.68,487.79 C622.76,492.24 620.66,501.31 623.06,507.68 C625.41,513.90 634.02,519.96 640.50,519.96 C642.15,519.96 645.32,519.13 647.54,518.12 ZM 683.52 516.60 C685.33,512.27 693.00,486.91 693.00,485.25 C693.00,484.40 691.26,484.00 687.61,484.00 C682.30,484.00 682.19,484.06 680.70,487.80 C679.86,489.89 678.69,494.24 678.09,497.46 C677.50,500.69 676.82,503.51 676.60,503.74 C676.18,504.15 674.12,497.50 671.94,488.75 L 670.76 484.00 L 664.49 484.00 L 658.21 484.00 L 661.41 493.75 C663.16,499.11 665.85,507.21 667.38,511.75 L 670.16 520.00 L 676.13 520.00 C681.97,520.00 682.13,519.93 683.52,516.60 ZM 708.32 507.00 C708.78,500.12 708.86,492.14 708.50,489.25 L 707.86 484.00 L 702.56 484.00 L 697.27 484.00 L 696.64 488.64 C695.65,495.82 695.89,514.57 697.00,517.49 C697.90,519.88 698.41,520.08 702.75,519.80 L 707.50 519.50 L 708.32 507.00 ZM 723.01 511.75 L 723.01 503.50 L 727.08 508.25 C732.30,514.33 734.64,514.43 739.40,508.75 L 742.96 504.50 L 742.98 512.30 L 743.00 520.10 L 748.25 519.80 L 753.50 519.50 L 753.50 502.00 L 753.50 484.50 L 748.00 484.22 L 742.50 483.93 L 738.18 491.97 C735.81,496.38 733.56,499.99 733.18,499.99 C732.81,499.98 730.57,496.38 728.21,491.99 L 723.91 484.00 L 718.56 484.00 L 713.22 484.00 L 712.50 494.94 C711.87,504.70 712.47,517.22 713.67,519.25 C713.92,519.66 716.12,520.00 718.56,520.00 L 723.00 520.00 L 723.01 511.75 ZM 785.80 514.75 L 786.11 510.00 L 780.49 510.00 C777.40,510.00 773.89,509.44 772.68,508.75 C770.74,507.64 771.28,507.44 777.50,507.00 L 784.50 506.50 L 784.80 501.87 L 785.10 497.24 L 778.59 496.82 C768.21,496.16 768.06,493.83 778.33,493.00 L 784.50 492.50 L 784.81 488.25 L 785.11 484.00 L 772.06 484.00 L 759.00 484.00 L 759.00 501.33 C759.00,510.87 759.31,518.98 759.70,519.36 C760.08,519.74 766.04,519.93 772.95,519.78 L 785.50 519.50 L 785.80 514.75 ZM 800.13 517.87 C801.98,516.02 802.19,514.94 801.74,509.37 C801.46,505.87 801.52,503.02 801.87,503.04 C802.21,503.07 805.01,506.78 808.07,511.29 L 813.64 519.50 L 818.57 519.50 L 823.50 519.50 L 823.77 501.75 L 824.05 484.00 L 818.56 484.00 L 813.08 484.00 L 812.79 492.66 L 812.50 501.33 L 807.21 492.66 L 801.92 484.00 L 796.61 484.00 L 791.30 484.00 L 790.63 492.61 C790.04,500.38 790.57,515.57 791.55,518.75 C792.18,520.78 797.79,520.21 800.13,517.87 ZM 846.78 506.25 L 847.06 493.00 L 851.41 493.00 C855.07,493.00 855.86,492.64 856.35,490.78 C857.26,487.28 856.00,484.04 853.47,483.40 C852.20,483.08 845.93,482.98 839.54,483.16 C826.80,483.53 825.76,484.03 826.24,489.50 C826.49,492.36 826.73,492.51 831.60,492.80 L 836.71 493.09 L 836.22 504.98 C835.95,511.51 836.01,517.59 836.36,518.48 C836.84,519.74 838.08,520.04 841.74,519.81 L 846.50 519.50 L 846.78 506.25 ZM 919.45 516.75 C919.75,514.96 920.11,511.25 920.25,508.50 L 920.50 503.50 L 926.36 511.80 L 932.21 520.10 L 936.36 519.80 L 940.50 519.50 L 940.77 501.75 L 941.05 484.00 L 936.02 484.00 L 931.00 484.00 L 931.00 492.00 C931.00,496.40 930.64,500.00 930.20,500.00 C929.76,500.00 928.44,498.02 927.27,495.61 C924.59,490.10 919.30,484.00 917.19,484.00 C916.31,484.00 914.11,485.44 912.30,487.20 L 909.00 490.39 L 909.00 505.20 L 909.00 520.00 L 913.95 520.00 C918.77,520.00 918.93,519.91 919.45,516.75 ZM 956.66 517.00 C958.41,515.03 960.28,514.00 962.10,514.00 C963.79,514.00 966.17,515.18 968.16,517.00 C970.58,519.21 972.43,520.00 975.16,520.00 C977.21,520.00 979.08,519.66 979.33,519.25 C979.94,518.24 972.93,494.69 970.25,488.75 L 968.11 484.00 L 961.78 484.00 L 955.45 484.00 L 950.23 499.78 C943.64,519.67 943.63,520.00 949.49,520.00 C953.22,520.00 954.44,519.49 956.66,517.00 ZM 1027.86 517.75 C1028.31,516.51 1028.47,508.39 1028.22,499.70 L 1027.75 483.90 L 1022.63 484.20 L 1017.50 484.50 L 1017.23 502.25 L 1016.95 520.00 L 1022.00 520.00 C1026.33,520.00 1027.17,519.68 1027.86,517.75 ZM 1056.75 518.46 C1063.86,515.49 1068.00,509.25 1068.00,501.51 C1068.00,488.92 1057.32,480.68 1045.22,483.94 C1040.78,485.14 1035.65,488.91 1033.82,492.33 C1028.88,501.57 1032.68,513.16 1042.20,517.87 C1047.29,520.39 1051.70,520.57 1056.75,518.46 ZM 1084.00 511.50 L 1084.50 503.50 L 1090.01 511.50 C1095.52,519.49 1095.53,519.50 1100.01,519.50 L 1104.50 519.50 L 1104.77 501.75 L 1105.05 484.00 L 1100.02 484.00 L 1095.00 484.00 L 1095.00 492.00 C1095.00,496.40 1094.66,499.98 1094.25,499.96 C1093.84,499.95 1091.34,496.35 1088.71,491.96 L 1083.92 484.00 L 1078.49 484.00 L 1073.07 484.00 L 1073.05 502.05 L 1073.03 520.10 L 1078.27 519.80 L 1083.50 519.50 L 1084.00 511.50 ZM 1121.00 517.00 C1126.59,513.29 1128.58,513.29 1132.96,517.04 C1136.35,519.94 1141.27,520.99 1142.46,519.07 C1143.07,518.08 1138.27,500.26 1134.80,490.67 C1132.38,483.96 1130.36,482.70 1123.80,483.82 C1119.72,484.51 1119.39,484.83 1117.30,490.07 C1114.85,496.25 1110.50,510.83 1109.46,516.37 L 1108.78 520.00 L 1112.64 520.00 C1115.25,519.99 1117.95,519.02 1121.00,517.00 ZM 1171.81 516.31 C1172.30,511.24 1169.11,508.75 1162.67,509.17 L 1157.50 509.50 L 1157.50 497.67 C1157.50,487.26 1157.27,485.68 1155.63,484.47 C1153.68,483.05 1148.37,483.46 1146.50,485.18 C1145.40,486.20 1145.39,514.49 1146.49,517.96 C1147.12,519.96 1147.72,520.05 1159.33,519.78 L 1171.50 519.50 L 1171.81 516.31 ZM 1247.80 514.80 L 1248.11 510.09 L 1241.38 509.80 C1232.34,509.40 1231.47,507.21 1240.18,506.80 L 1246.50 506.50 L 1246.81 502.10 C1247.20,496.70 1246.31,496.04 1238.75,496.02 C1230.71,495.99 1231.54,494.16 1239.75,493.80 L 1246.50 493.50 L 1246.80 488.75 L 1247.11 484.00 L 1234.29 484.00 L 1221.48 484.00 L 1221.66 501.75 C1221.77,511.51 1221.88,519.63 1221.93,519.78 C1221.97,519.93 1227.74,519.93 1234.75,519.78 L 1247.50 519.50 L 1247.80 514.80 ZM 182.66 478.33 C191.02,471.34 204.98,462.04 213.81,457.60 C244.38,442.20 280.27,440.42 316.64,452.50 C333.15,457.98 350.19,467.51 369.76,482.18 L 374.01 485.37 L 384.76 474.03 C390.67,467.80 395.63,462.18 395.79,461.54 C395.94,460.91 391.95,457.06 386.92,452.99 C357.48,429.19 327.02,415.51 294.53,411.48 C279.51,409.62 271.41,409.63 257.50,411.49 C221.19,416.38 198.42,423.92 175.70,438.63 C168.50,443.28 151.00,459.60 151.00,461.65 C151.00,462.26 156.00,468.00 162.12,474.40 C171.76,484.50 173.45,485.88 174.86,484.77 C175.75,484.07 179.26,481.17 182.66,478.33 ZM 427.04 423.70 C441.53,402.29 450.72,381.08 456.81,355.00 C460.64,338.57 461.50,329.98 461.45,308.50 C461.41,291.13 461.02,285.45 459.17,275.64 C454.57,251.14 449.60,235.91 439.54,215.50 C412.55,160.72 364.46,123.59 304.00,110.87 C295.45,109.07 261.08,109.03 251.50,110.81 C216.99,117.23 191.25,127.03 167.81,142.67 C115.15,177.82 84.00,239.64 84.00,309.00 C84.00,347.01 93.52,382.41 112.26,414.08 C118.59,424.78 129.53,440.00 130.89,440.00 C132.18,440.00 153.66,423.55 158.75,418.66 L 163.00 414.58 L 159.59 411.04 C150.22,401.29 139.29,383.12 133.62,367.84 C120.01,331.19 119.63,292.36 132.50,253.50 C133.41,250.75 136.77,243.03 139.97,236.35 C161.87,190.63 199.94,160.90 247.50,152.40 C262.21,149.77 286.12,150.04 299.94,152.98 C346.52,162.89 381.83,190.26 402.57,232.50 C413.22,254.21 418.08,272.13 420.08,297.06 C423.07,334.40 413.36,369.64 390.86,403.03 C382.81,414.97 382.76,415.08 384.59,417.28 C392.63,426.98 400.53,433.69 409.50,438.45 L 414.50 441.11 L 416.78 438.30 C418.03,436.76 422.65,430.19 427.04,423.70 ZM 526.58 422.05 C525.82,401.85 526.53,388.68 528.35,389.28 C529.35,389.62 539.74,411.02 541.93,417.25 C542.89,419.99 542.94,420.00 552.20,419.98 L 561.50 419.96 L 569.50 404.48 C573.90,395.97 577.84,389.00 578.25,389.00 C578.66,389.00 579.00,400.49 579.00,414.53 L 579.00 440.06 L 592.25 439.78 L 605.50 439.50 L 605.76 384.87 L 606.02 330.24 L 603.76 329.63 C602.52,329.30 596.24,329.02 589.82,329.01 C578.57,329.00 578.11,329.08 577.45,331.25 C576.28,335.08 555.00,377.41 553.48,378.95 C552.22,380.21 550.42,377.07 539.51,354.70 L 526.98 329.00 L 513.49 329.00 L 500.00 329.00 L 500.00 384.45 L 500.00 439.91 L 506.75 440.26 C510.46,440.45 516.60,440.70 520.40,440.80 L 527.29 441.00 L 526.58 422.05 ZM 678.19 438.35 C693.44,433.56 705.75,419.00 710.59,400.00 C712.88,391.00 712.10,370.99 709.13,362.66 C704.28,349.08 695.66,338.38 685.37,333.18 C659.63,320.19 630.63,333.56 620.47,363.11 C617.87,370.68 617.59,372.72 617.65,384.00 C617.71,394.66 618.11,397.69 620.35,404.58 C629.14,431.61 653.80,446.01 678.19,438.35 ZM 840.43 440.02 L 843.00 439.05 L 843.00 384.02 L 843.00 329.00 L 833.64 329.00 C828.49,329.00 822.19,329.29 819.63,329.64 L 814.98 330.27 L 815.24 384.89 L 815.50 439.50 L 820.00 440.10 C827.48,441.10 837.71,441.06 840.43,440.02 ZM 1061.36 440.36 L 1066.00 439.73 L 1066.00 384.36 L 1066.00 329.00 L 1051.50 329.00 C1040.55,329.00 1037.01,329.31 1037.03,330.25 C1037.07,331.67 1012.77,380.89 1012.00,380.96 C1011.44,381.00 988.65,336.03 987.07,331.75 L 986.05 329.00 L 972.69 329.00 L 959.32 329.00 L 958.66 355.25 C957.83,388.61 957.82,412.40 958.66,427.87 L 959.31 440.06 L 972.41 439.78 L 985.50 439.50 L 986.00 414.04 C986.58,384.55 985.57,385.24 996.62,406.77 L 1003.11 419.41 L 1011.81 419.15 C1018.63,418.95 1020.82,418.52 1022.00,417.14 C1022.83,416.18 1026.43,409.49 1030.00,402.28 C1033.57,395.07 1036.84,389.13 1037.25,389.08 C1037.66,389.04 1038.00,400.45 1038.00,414.44 L 1038.00 439.89 L 1042.25 440.27 C1050.07,440.97 1056.68,441.01 1061.36,440.36 ZM 781.61 423.50 C783.88,414.70 788.31,398.73 791.47,388.00 C794.62,377.27 799.42,360.40 802.14,350.50 C804.86,340.60 807.32,331.71 807.61,330.75 C808.09,329.13 806.89,329.00 791.76,329.00 L 775.38 329.00 L 772.72 340.75 C771.25,347.21 767.98,361.73 765.43,373.00 C762.89,384.27 760.48,394.10 760.08,394.82 C759.67,395.56 756.11,381.54 752.08,363.32 C748.09,345.27 744.61,330.27 744.33,330.00 C743.59,329.25 712.00,328.76 712.00,329.50 C712.00,329.84 718.49,352.94 726.42,380.81 C734.34,408.69 741.34,433.42 741.96,435.77 L 743.09 440.05 L 760.29 439.77 L 777.49 439.50 L 781.61 423.50 ZM 885.00 413.00 C885.00,396.24 885.37,386.00 885.97,386.00 C887.22,386.00 891.56,392.84 902.44,412.00 C907.28,420.52 912.86,430.33 914.85,433.78 L 918.45 440.06 L 930.97 439.78 L 943.50 439.50 L 943.76 384.25 L 944.02 329.00 L 933.26 329.12 C927.34,329.18 921.27,329.52 919.78,329.87 L 917.05 330.50 L 917.28 357.75 C917.40,372.74 917.27,385.00 916.99,385.00 C916.24,385.00 915.01,382.92 899.43,355.21 L 885.21 329.92 L 872.19 329.66 L 859.17 329.40 L 858.59 332.32 C857.77,336.40 857.85,438.51 858.67,439.33 C859.03,439.70 865.11,440.00 872.17,440.00 L 885.00 440.00 L 885.00 413.00 ZM 1104.42 432.10 L 1106.12 424.20 L 1114.81 423.82 C1124.64,423.38 1132.99,424.37 1134.06,426.09 C1134.45,426.73 1135.07,429.45 1135.42,432.14 C1136.53,440.48 1135.54,440.00 1151.61,440.00 C1161.32,440.00 1166.00,439.65 1166.00,438.91 C1166.00,437.55 1156.18,400.04 1146.52,364.50 C1142.49,349.65 1138.79,335.70 1138.30,333.50 L 1137.42 329.50 L 1120.05 329.50 L 1102.67 329.50 L 1101.91 332.00 C1101.49,333.38 1097.30,348.67 1092.59,366.00 C1087.88,383.33 1081.54,406.50 1078.52,417.50 C1075.49,428.50 1073.01,438.06 1073.01,438.75 C1073.00,439.69 1076.63,440.00 1087.86,440.00 L 1102.71 440.00 L 1104.42 432.10 ZM 1202.00 429.62 C1202.00,423.92 1202.27,417.90 1202.60,416.25 L 1203.20 413.24 L 1214.35 412.76 C1222.55,412.41 1227.01,411.70 1231.22,410.08 C1248.43,403.46 1257.77,380.60 1252.46,358.09 C1250.43,349.49 1246.58,342.71 1240.76,337.47 C1232.24,329.81 1222.61,328.08 1193.33,328.96 C1183.34,329.26 1174.95,329.73 1174.69,330.00 C1173.85,330.90 1173.48,437.46 1174.31,438.75 C1174.89,439.65 1178.90,440.00 1188.56,440.00 L 1202.00 440.00 L 1202.00 429.62 ZM 1292.00 427.00 C1292.00,419.85 1292.11,413.99 1292.25,413.98 C1292.39,413.96 1297.78,413.54 1304.22,413.04 C1318.32,411.95 1325.82,409.09 1331.93,402.46 C1344.20,389.14 1346.75,365.58 1337.89,347.28 C1330.40,331.80 1316.13,327.02 1281.75,328.47 L 1264.00 329.21 L 1264.00 384.61 L 1264.00 440.00 L 1278.00 440.00 L 1292.00 440.00 L 1292.00 427.00 ZM 218.18 383.49 C218.57,381.30 218.91,374.03 218.94,367.35 L 219.00 355.20 L 230.75 354.42 C250.78,353.10 320.09,353.33 323.25,354.73 C325.79,355.86 326.00,356.39 326.01,361.73 C326.01,364.90 326.30,371.89 326.66,377.25 L 327.30 387.00 L 341.53 387.00 L 355.76 387.00 L 356.48 370.54 L 357.21 354.08 L 364.35 353.79 L 371.48 353.50 L 372.32 348.50 C372.78,345.75 373.19,334.27 373.24,323.00 C373.32,304.04 373.14,301.90 370.91,294.59 L 368.50 286.68 L 361.10 282.59 L 353.71 278.50 L 349.76 269.50 C344.25,256.96 339.17,243.34 335.40,231.00 L 332.19 220.50 L 273.22 220.24 L 214.26 219.98 L 208.11 238.00 C204.73,247.91 199.80,261.07 197.16,267.24 C192.52,278.06 192.13,278.62 186.46,282.49 C175.31,290.09 172.90,296.44 172.25,319.88 C171.71,339.07 172.55,350.41 174.66,352.52 C175.64,353.49 178.16,354.00 182.07,354.00 L 188.00 354.00 L 188.00 364.35 C188.00,370.05 188.29,377.46 188.64,380.82 L 189.28 386.94 L 201.89 387.26 C208.83,387.44 215.17,387.56 215.98,387.53 C216.92,387.50 217.73,385.99 218.18,383.49 ZM 738.05 639.56 C737.39,638.76 736.99,637.07 737.17,635.81 C737.42,634.06 738.24,633.43 740.55,633.20 C744.66,632.80 747.65,635.91 746.04,638.92 C744.73,641.37 739.88,641.76 738.05,639.56 ZM 739.01 627.29 C735.91,625.12 736.57,620.40 739.92,620.77 C743.21,621.13 745.00,622.80 745.00,625.51 C745.00,628.37 741.87,629.30 739.01,627.29 ZM 777.25 641.91 C774.64,640.93 774.20,637.25 776.58,636.33 C778.90,635.44 781.24,638.20 780.28,640.69 C779.66,642.33 779.04,642.58 777.25,641.91 ZM 905.67 641.33 C905.30,640.97 905.00,639.59 905.00,638.27 C905.00,636.24 905.43,635.92 907.75,636.18 C909.91,636.43 910.57,637.09 910.82,639.25 C911.08,641.57 910.76,642.00 908.73,642.00 C907.41,642.00 906.03,641.70 905.67,641.33 ZM 959.60 639.83 C957.72,637.15 957.69,636.67 959.05,631.75 C959.89,628.73 960.57,628.00 962.52,628.00 C964.04,628.00 965.60,628.98 966.66,630.60 C968.20,632.95 968.22,633.62 966.93,637.35 C965.22,642.32 962.08,643.38 959.60,639.83 ZM 1037.00 640.50 C1033.51,636.29 1035.83,620.44 1039.83,621.21 C1043.74,621.96 1045.31,631.93 1042.55,638.53 C1041.00,642.23 1039.02,642.94 1037.00,640.50 ZM 1079.09 634.61 C1078.01,633.31 1077.99,632.43 1078.99,630.03 C1080.70,625.89 1082.87,624.19 1084.06,626.06 C1085.55,628.42 1085.13,630.73 1082.71,633.55 C1080.65,635.95 1080.29,636.05 1079.09,634.61 ZM 616.45 572.55 C614.61,570.70 614.00,569.02 614.00,565.77 C614.00,560.19 616.20,557.00 620.06,557.00 C626.54,557.00 629.14,564.80 624.92,571.63 C622.43,575.66 619.84,575.94 616.45,572.55 ZM 678.92 572.08 C675.09,568.25 674.97,563.38 678.59,559.08 C681.64,555.45 682.83,555.30 686.37,558.07 C689.72,560.71 689.97,566.70 686.92,571.63 C684.37,575.76 682.70,575.86 678.92,572.08 ZM 816.49 566.98 C815.74,564.62 816.79,559.00 817.97,559.00 C819.17,559.00 820.00,561.70 820.00,565.58 C820.00,569.43 817.58,570.39 816.49,566.98 ZM 919.11 573.60 C916.64,572.23 914.10,568.50 914.04,566.15 C913.97,563.81 916.92,558.53 919.01,557.22 C920.66,556.19 921.55,556.23 923.89,557.45 C927.22,559.17 928.00,560.76 928.00,565.89 C928.00,568.68 927.29,570.31 925.20,572.31 C921.97,575.40 922.24,575.34 919.11,573.60 ZM 1232.75 573.93 C1229.92,572.26 1227.73,567.09 1228.41,563.68 C1229.29,559.31 1231.77,557.00 1235.60,557.00 C1241.83,557.00 1244.06,564.64 1239.71,571.10 C1237.22,574.80 1235.44,575.52 1232.75,573.93 ZM 714.20 563.80 C713.54,563.14 713.00,561.34 713.00,559.80 C713.00,557.37 713.39,557.00 715.95,557.00 C719.32,557.00 720.90,559.07 720.23,562.60 C719.72,565.24 716.32,565.92 714.20,563.80 ZM 886.75 564.92 C884.65,563.70 884.41,558.73 886.38,557.10 C888.79,555.10 893.00,557.43 893.00,560.78 C893.00,565.31 890.39,567.04 886.75,564.92 ZM 953.24 563.84 C952.56,563.16 952.00,561.11 952.00,559.30 C952.00,556.67 952.40,556.00 954.00,556.00 C957.21,556.00 960.11,559.53 959.12,562.23 C958.16,564.82 955.07,565.67 953.24,563.84 ZM 993.67 569.33 C992.65,568.32 992.90,561.70 994.02,560.00 C994.89,558.67 995.11,558.67 995.98,560.00 C998.41,563.70 996.35,572.02 993.67,569.33 ZM 1025.13 564.65 C1024.51,563.91 1023.73,561.90 1023.38,560.17 C1022.64,556.45 1024.26,555.39 1028.33,556.93 C1030.35,557.70 1031.00,558.63 1031.00,560.78 C1031.00,565.30 1027.55,567.57 1025.13,564.65 ZM 1128.98 568.48 C1127.84,567.11 1128.14,560.53 1129.39,559.28 C1130.69,557.97 1132.00,560.59 1132.00,564.50 C1132.00,569.32 1130.89,570.78 1128.98,568.48 ZM 870.65 507.55 C867.20,504.35 867.18,500.13 870.59,496.08 C875.51,490.23 883.45,493.16 883.45,500.84 C883.45,508.80 876.14,512.64 870.65,507.55 ZM 1196.66 508.17 C1195.49,506.89 1195.00,504.51 1195.00,500.17 L 1195.00 494.00 L 1198.05 494.00 C1199.98,494.00 1202.03,494.94 1203.66,496.57 C1205.81,498.72 1206.14,499.76 1205.65,502.82 C1205.08,506.41 1202.02,510.00 1199.54,510.00 C1198.87,510.00 1197.57,509.18 1196.66,508.17 ZM 633.97 507.95 C632.30,504.82 632.56,498.59 634.50,495.64 C635.79,493.68 637.07,493.00 639.50,493.00 C643.95,493.00 646.83,495.68 647.57,500.50 C648.47,506.43 645.42,510.00 639.46,510.00 C636.06,510.00 634.82,509.54 633.97,507.95 ZM 961.07 505.58 C960.21,504.54 959.93,502.55 960.29,499.91 C960.97,494.82 961.77,493.97 963.58,496.44 C965.35,498.87 965.41,503.06 963.70,505.40 C962.51,507.02 962.28,507.04 961.07,505.58 ZM 1044.45 507.55 C1041.39,504.48 1041.34,501.27 1044.29,496.90 C1048.05,491.32 1054.13,491.67 1056.62,497.62 C1060.38,506.63 1051.10,514.20 1044.45,507.55 ZM 1124.39 503.43 C1123.70,500.66 1125.31,496.00 1126.96,496.00 C1128.36,496.00 1129.34,500.51 1128.59,503.50 C1127.77,506.76 1125.22,506.71 1124.39,503.43 ZM 659.50 407.51 C654.51,405.76 647.78,398.55 646.19,393.25 C644.41,387.29 644.73,377.18 646.86,372.49 C648.94,367.93 654.83,362.33 658.54,361.40 C659.92,361.05 663.91,360.95 667.41,361.17 C674.97,361.66 679.74,364.71 683.24,371.31 C686.40,377.26 686.41,389.72 683.27,395.64 C680.52,400.81 673.76,406.69 669.07,408.00 C664.62,409.23 664.38,409.22 659.50,407.51 ZM 1112.79 395.46 C1111.71,394.37 1118.81,361.00 1120.12,361.00 C1122.29,361.00 1126.23,375.92 1127.59,389.25 L 1128.28 396.00 L 1120.80 396.00 C1116.70,396.00 1113.09,395.76 1112.79,395.46 ZM 1202.67 383.33 C1202.30,382.97 1202.00,377.32 1202.00,370.80 L 1202.00 358.92 L 1211.21 359.21 L 1220.43 359.50 L 1222.71 362.90 C1227.25,369.64 1224.69,380.41 1218.00,382.69 C1214.22,383.98 1203.75,384.42 1202.67,383.33 ZM 1292.67 383.33 C1292.30,382.97 1292.00,377.34 1292.00,370.83 L 1292.00 359.00 L 1299.03 359.00 C1310.70,359.00 1315.05,361.92 1314.95,369.68 C1314.88,375.17 1312.10,380.20 1308.00,382.25 C1304.56,383.97 1294.04,384.71 1292.67,383.33 ZM 198.35 324.91 C194.32,323.74 189.28,318.01 188.47,313.68 C187.53,308.67 189.62,302.45 193.57,298.49 C196.53,295.53 197.76,295.00 201.58,295.00 C212.52,295.00 219.41,304.18 216.06,314.30 C214.60,318.73 206.87,326.03 203.77,325.91 C202.52,325.86 200.08,325.41 198.35,324.91 ZM 338.42 324.10 C327.82,319.29 326.18,307.78 334.82,298.75 C337.74,295.69 339.11,295.00 342.24,295.00 C358.46,295.00 363.82,313.28 350.55,323.39 C346.52,326.47 343.95,326.62 338.42,324.10 ZM 225.18 279.26 C221.16,279.07 218.01,278.57 218.18,278.16 C218.36,277.75 221.62,268.82 225.43,258.32 L 232.35 239.22 L 262.43 238.53 C278.97,238.16 297.58,237.99 303.79,238.17 L 315.09 238.50 L 321.85 258.77 C325.57,269.93 328.40,279.26 328.14,279.52 C327.62,280.05 236.91,279.81 225.18,279.26 Z" fill="rgb(254,254,254)"/>
</g>
</svg>
